%TF.GenerationSoftware,KiCad,Pcbnew,9.0.7*%
%TF.CreationDate,2026-02-08T14:26:31+09:00*%
%TF.ProjectId,level_shifter,6c657665-6c5f-4736-9869-667465722e6b,rev?*%
%TF.SameCoordinates,Original*%
%TF.FileFunction,Legend,Top*%
%TF.FilePolarity,Positive*%
%FSLAX46Y46*%
G04 Gerber Fmt 4.6, Leading zero omitted, Abs format (unit mm)*
G04 Created by KiCad (PCBNEW 9.0.7) date 2026-02-08 14:26:31*
%MOMM*%
%LPD*%
G01*
G04 APERTURE LIST*
%ADD10C,0.250000*%
%ADD11C,0.150000*%
%ADD12C,0.120000*%
G04 APERTURE END LIST*
D10*
G36*
X187168921Y-109926311D02*
G01*
X187195280Y-109979028D01*
X186829949Y-110052094D01*
X186829949Y-109986460D01*
X186860022Y-109926311D01*
X186920172Y-109896238D01*
X187108773Y-109896238D01*
X187168921Y-109926311D01*
G37*
G36*
X189273683Y-109926311D02*
G01*
X189300042Y-109979028D01*
X188934711Y-110052094D01*
X188934711Y-109986460D01*
X188964784Y-109926311D01*
X189024934Y-109896238D01*
X189213535Y-109896238D01*
X189273683Y-109926311D01*
G37*
G36*
X195824371Y-110907348D02*
G01*
X171333145Y-110907348D01*
X171333145Y-109313518D01*
X171477589Y-109313518D01*
X171477589Y-109362290D01*
X171496253Y-109407350D01*
X171530741Y-109441838D01*
X171575801Y-109460502D01*
X171600187Y-109462904D01*
X172129478Y-109462904D01*
X171877543Y-109750829D01*
X171870007Y-109761369D01*
X171867681Y-109763696D01*
X171866767Y-109765901D01*
X171863292Y-109770763D01*
X171856785Y-109790001D01*
X171849017Y-109808756D01*
X171849017Y-109812969D01*
X171847666Y-109816964D01*
X171849017Y-109837225D01*
X171849017Y-109857528D01*
X171850630Y-109861423D01*
X171850911Y-109865630D01*
X171859910Y-109883828D01*
X171867681Y-109902588D01*
X171870662Y-109905569D01*
X171872531Y-109909348D01*
X171887811Y-109922718D01*
X171902169Y-109937076D01*
X171906063Y-109938689D01*
X171909236Y-109941465D01*
X171928474Y-109947971D01*
X171947229Y-109955740D01*
X171953173Y-109956325D01*
X171955437Y-109957091D01*
X171958721Y-109956871D01*
X171971615Y-109958142D01*
X172127822Y-109958142D01*
X172207094Y-109997778D01*
X172240312Y-110030996D01*
X172279949Y-110110269D01*
X172279949Y-110360777D01*
X172240312Y-110440051D01*
X172207095Y-110473267D01*
X172127821Y-110512904D01*
X171815410Y-110512904D01*
X171736134Y-110473266D01*
X171688575Y-110425707D01*
X171669633Y-110410162D01*
X171624574Y-110391497D01*
X171575800Y-110391497D01*
X171530741Y-110410162D01*
X171496254Y-110444649D01*
X171477589Y-110489708D01*
X171477589Y-110538482D01*
X171496254Y-110583541D01*
X171511799Y-110602483D01*
X171573704Y-110664388D01*
X171583289Y-110672254D01*
X171585453Y-110674749D01*
X171589214Y-110677117D01*
X171592646Y-110679933D01*
X171595692Y-110681194D01*
X171606191Y-110687804D01*
X171729999Y-110749707D01*
X171752885Y-110758465D01*
X171757365Y-110758783D01*
X171761515Y-110760502D01*
X171785901Y-110762904D01*
X172157330Y-110762904D01*
X172181716Y-110760502D01*
X172185864Y-110758783D01*
X172190346Y-110758465D01*
X172213231Y-110749708D01*
X172337040Y-110687804D01*
X172347539Y-110681194D01*
X172350585Y-110679933D01*
X172354014Y-110677118D01*
X172357777Y-110674750D01*
X172359941Y-110672254D01*
X172369527Y-110664388D01*
X172431432Y-110602483D01*
X172439298Y-110592897D01*
X172441793Y-110590734D01*
X172444160Y-110586972D01*
X172446977Y-110583541D01*
X172448239Y-110580493D01*
X172454847Y-110569997D01*
X172464039Y-110551614D01*
X172777589Y-110551614D01*
X172777589Y-110600388D01*
X172796254Y-110645447D01*
X172796258Y-110645451D01*
X172811799Y-110664388D01*
X172873702Y-110726292D01*
X172892644Y-110741837D01*
X172892645Y-110741838D01*
X172903898Y-110746499D01*
X172937703Y-110760502D01*
X172937704Y-110760502D01*
X172937705Y-110760502D01*
X172986477Y-110760502D01*
X173031537Y-110741838D01*
X173031538Y-110741837D01*
X173050479Y-110726293D01*
X173112384Y-110664389D01*
X173127929Y-110645447D01*
X173146594Y-110600388D01*
X173146594Y-110551614D01*
X173143019Y-110542984D01*
X173136026Y-110526100D01*
X173127930Y-110506555D01*
X173127928Y-110506553D01*
X173112384Y-110487612D01*
X173050479Y-110425707D01*
X173031542Y-110410166D01*
X173031537Y-110410161D01*
X172998044Y-110396288D01*
X172986478Y-110391497D01*
X172986477Y-110391497D01*
X172937703Y-110391497D01*
X172911308Y-110402430D01*
X172892645Y-110410161D01*
X172892644Y-110410162D01*
X172873702Y-110425707D01*
X172811798Y-110487612D01*
X172796253Y-110506554D01*
X172788157Y-110526100D01*
X172781164Y-110542984D01*
X172777589Y-110551614D01*
X172464039Y-110551614D01*
X172516752Y-110446187D01*
X172525510Y-110423301D01*
X172525828Y-110418819D01*
X172527547Y-110414671D01*
X172529949Y-110390285D01*
X172529949Y-110080761D01*
X172527547Y-110056375D01*
X172525828Y-110052226D01*
X172525510Y-110047745D01*
X172516752Y-110024859D01*
X172454847Y-109901050D01*
X172448239Y-109890553D01*
X172446977Y-109887506D01*
X172444160Y-109884074D01*
X172441793Y-109880313D01*
X172439298Y-109878149D01*
X172431432Y-109868564D01*
X172369527Y-109806659D01*
X172359941Y-109798792D01*
X172357778Y-109796298D01*
X172354016Y-109793930D01*
X172350585Y-109791114D01*
X172347537Y-109789851D01*
X172337041Y-109783244D01*
X172228749Y-109729097D01*
X172499021Y-109420217D01*
X172506556Y-109409676D01*
X172508883Y-109407350D01*
X172509796Y-109405144D01*
X172513272Y-109400283D01*
X172519778Y-109381044D01*
X172527547Y-109362290D01*
X172527547Y-109358076D01*
X172528898Y-109354082D01*
X172527547Y-109333820D01*
X172527547Y-109313518D01*
X173334732Y-109313518D01*
X173334732Y-109362290D01*
X173353396Y-109407350D01*
X173387884Y-109441838D01*
X173432944Y-109460502D01*
X173457330Y-109462904D01*
X173986621Y-109462904D01*
X173734686Y-109750829D01*
X173727150Y-109761369D01*
X173724824Y-109763696D01*
X173723910Y-109765901D01*
X173720435Y-109770763D01*
X173713928Y-109790001D01*
X173706160Y-109808756D01*
X173706160Y-109812969D01*
X173704809Y-109816964D01*
X173706160Y-109837225D01*
X173706160Y-109857528D01*
X173707773Y-109861423D01*
X173708054Y-109865630D01*
X173717053Y-109883828D01*
X173724824Y-109902588D01*
X173727805Y-109905569D01*
X173729674Y-109909348D01*
X173744954Y-109922718D01*
X173759312Y-109937076D01*
X173763206Y-109938689D01*
X173766379Y-109941465D01*
X173785617Y-109947971D01*
X173804372Y-109955740D01*
X173810316Y-109956325D01*
X173812580Y-109957091D01*
X173815864Y-109956871D01*
X173828758Y-109958142D01*
X173984965Y-109958142D01*
X174064237Y-109997778D01*
X174097455Y-110030996D01*
X174137092Y-110110269D01*
X174137092Y-110360777D01*
X174097455Y-110440051D01*
X174064238Y-110473267D01*
X173984964Y-110512904D01*
X173672553Y-110512904D01*
X173593277Y-110473266D01*
X173545718Y-110425707D01*
X173526776Y-110410162D01*
X173481717Y-110391497D01*
X173432943Y-110391497D01*
X173387884Y-110410162D01*
X173353397Y-110444649D01*
X173334732Y-110489708D01*
X173334732Y-110538482D01*
X173353397Y-110583541D01*
X173368942Y-110602483D01*
X173430847Y-110664388D01*
X173440432Y-110672254D01*
X173442596Y-110674749D01*
X173446357Y-110677117D01*
X173449789Y-110679933D01*
X173452835Y-110681194D01*
X173463334Y-110687804D01*
X173587142Y-110749707D01*
X173610028Y-110758465D01*
X173614508Y-110758783D01*
X173618658Y-110760502D01*
X173643044Y-110762904D01*
X174014473Y-110762904D01*
X174038859Y-110760502D01*
X174043007Y-110758783D01*
X174047489Y-110758465D01*
X174070374Y-110749708D01*
X174194183Y-110687804D01*
X174204682Y-110681194D01*
X174207728Y-110679933D01*
X174211157Y-110677118D01*
X174214920Y-110674750D01*
X174217084Y-110672254D01*
X174226670Y-110664388D01*
X174288575Y-110602483D01*
X174296441Y-110592897D01*
X174298936Y-110590734D01*
X174301303Y-110586972D01*
X174304120Y-110583541D01*
X174305382Y-110580493D01*
X174311990Y-110569997D01*
X174373895Y-110446187D01*
X174382653Y-110423301D01*
X174382971Y-110418819D01*
X174384690Y-110414671D01*
X174387092Y-110390285D01*
X174387092Y-110080761D01*
X174384690Y-110056375D01*
X174382971Y-110052226D01*
X174382653Y-110047745D01*
X174373895Y-110024859D01*
X174311990Y-109901050D01*
X174305382Y-109890553D01*
X174304120Y-109887506D01*
X174301303Y-109884074D01*
X174298936Y-109880313D01*
X174296441Y-109878149D01*
X174288575Y-109868564D01*
X174226670Y-109806659D01*
X174217084Y-109798792D01*
X174214921Y-109796298D01*
X174211159Y-109793930D01*
X174207728Y-109791114D01*
X174204680Y-109789851D01*
X174194184Y-109783244D01*
X174085892Y-109729097D01*
X174356164Y-109420217D01*
X174363699Y-109409676D01*
X174366026Y-109407350D01*
X174366939Y-109405144D01*
X174370415Y-109400283D01*
X174376921Y-109381044D01*
X174384690Y-109362290D01*
X174384690Y-109358076D01*
X174386041Y-109354082D01*
X174386005Y-109353538D01*
X174509502Y-109353538D01*
X174514935Y-109377432D01*
X174948268Y-110677432D01*
X174958258Y-110699807D01*
X174964108Y-110706553D01*
X174968104Y-110714544D01*
X174979945Y-110724813D01*
X174990213Y-110736653D01*
X174998202Y-110740647D01*
X175004949Y-110746499D01*
X175019816Y-110751454D01*
X175033837Y-110758465D01*
X175042747Y-110759098D01*
X175051219Y-110761922D01*
X175066852Y-110760811D01*
X175082487Y-110761922D01*
X175090958Y-110759098D01*
X175099868Y-110758465D01*
X175113888Y-110751454D01*
X175128756Y-110746499D01*
X175135502Y-110740648D01*
X175143493Y-110736653D01*
X175153762Y-110724811D01*
X175165602Y-110714544D01*
X175169596Y-110706555D01*
X175175448Y-110699808D01*
X175185438Y-110677433D01*
X175370432Y-110122452D01*
X176800641Y-110122452D01*
X176801327Y-110142665D01*
X176800641Y-110162880D01*
X176802149Y-110166901D01*
X176802295Y-110171197D01*
X176810665Y-110189610D01*
X176817766Y-110208546D01*
X176820699Y-110211685D01*
X176822478Y-110215598D01*
X176837256Y-110229405D01*
X176851064Y-110244184D01*
X176854976Y-110245962D01*
X176858116Y-110248896D01*
X176880106Y-110259707D01*
X177870583Y-110631136D01*
X177894259Y-110637450D01*
X177943004Y-110635796D01*
X177987405Y-110615613D01*
X178020703Y-110579975D01*
X178037828Y-110534309D01*
X178036174Y-110485564D01*
X178015991Y-110441163D01*
X177980353Y-110407865D01*
X177958363Y-110397054D01*
X177279995Y-110142666D01*
X177345025Y-110118280D01*
X178410922Y-110118280D01*
X178410922Y-110167052D01*
X178429586Y-110212112D01*
X178464074Y-110246600D01*
X178509134Y-110265264D01*
X178533520Y-110267666D01*
X179523997Y-110267666D01*
X179548383Y-110265264D01*
X179593443Y-110246600D01*
X179627931Y-110212112D01*
X179646595Y-110167052D01*
X179646595Y-110118280D01*
X179627931Y-110073220D01*
X179593443Y-110038732D01*
X179548383Y-110020068D01*
X179523997Y-110017666D01*
X178533520Y-110017666D01*
X178509134Y-110020068D01*
X178464074Y-110038732D01*
X178429586Y-110073220D01*
X178410922Y-110118280D01*
X177345025Y-110118280D01*
X177958364Y-109888279D01*
X177980354Y-109877467D01*
X178015991Y-109844170D01*
X178036174Y-109799769D01*
X178037828Y-109751024D01*
X180019689Y-109751024D01*
X180021343Y-109799769D01*
X180041526Y-109844170D01*
X180077164Y-109877468D01*
X180099154Y-109888279D01*
X180777521Y-110142666D01*
X180099154Y-110397054D01*
X180077164Y-110407865D01*
X180041526Y-110441163D01*
X180021343Y-110485564D01*
X180019689Y-110534309D01*
X180036814Y-110579975D01*
X180070112Y-110615613D01*
X180114513Y-110635796D01*
X180163258Y-110637450D01*
X180186934Y-110631136D01*
X181177411Y-110259707D01*
X181199401Y-110248896D01*
X181202539Y-110245963D01*
X181206454Y-110244184D01*
X181220265Y-110229401D01*
X181235039Y-110215598D01*
X181236817Y-110211686D01*
X181239751Y-110208546D01*
X181246851Y-110189610D01*
X181255222Y-110171197D01*
X181255367Y-110166901D01*
X181256876Y-110162880D01*
X181256190Y-110142665D01*
X181256876Y-110122452D01*
X181255367Y-110118430D01*
X181255222Y-110114135D01*
X181246851Y-110095721D01*
X181239751Y-110076786D01*
X181236817Y-110073646D01*
X181235039Y-110069734D01*
X181220261Y-110055926D01*
X181206453Y-110041148D01*
X181202540Y-110039369D01*
X181199402Y-110036437D01*
X181177412Y-110025625D01*
X181026459Y-109969018D01*
X182556724Y-109969018D01*
X182558542Y-109975043D01*
X182558542Y-109981340D01*
X182565535Y-109998221D01*
X182570812Y-110015712D01*
X182574798Y-110020584D01*
X182577207Y-110026399D01*
X182590126Y-110039318D01*
X182601697Y-110053460D01*
X182607243Y-110056435D01*
X182611694Y-110060886D01*
X182628576Y-110067878D01*
X182644676Y-110076515D01*
X182650938Y-110077141D01*
X182656754Y-110079550D01*
X182675026Y-110079550D01*
X182693206Y-110081368D01*
X182699232Y-110079550D01*
X182705528Y-110079550D01*
X182722409Y-110072556D01*
X182739900Y-110067280D01*
X182744772Y-110063293D01*
X182750587Y-110060885D01*
X182769529Y-110045340D01*
X182817090Y-109997777D01*
X182896362Y-109958142D01*
X183146870Y-109958142D01*
X183226142Y-109997778D01*
X183259360Y-110030996D01*
X183298997Y-110110269D01*
X183298997Y-110360777D01*
X183259360Y-110440051D01*
X183226143Y-110473267D01*
X183146869Y-110512904D01*
X182896363Y-110512904D01*
X182817089Y-110473267D01*
X182769529Y-110425707D01*
X182750587Y-110410162D01*
X182705528Y-110391497D01*
X182656754Y-110391497D01*
X182611694Y-110410161D01*
X182577207Y-110444648D01*
X182558542Y-110489707D01*
X182558542Y-110538481D01*
X182577206Y-110583541D01*
X182592751Y-110602483D01*
X182654655Y-110664388D01*
X182664244Y-110672257D01*
X182666406Y-110674750D01*
X182670164Y-110677115D01*
X182673597Y-110679933D01*
X182676645Y-110681195D01*
X182687143Y-110687804D01*
X182810953Y-110749708D01*
X182833838Y-110758465D01*
X182838318Y-110758783D01*
X182842468Y-110760502D01*
X182866854Y-110762904D01*
X183176378Y-110762904D01*
X183200764Y-110760502D01*
X183204912Y-110758783D01*
X183209394Y-110758465D01*
X183232279Y-110749708D01*
X183356088Y-110687804D01*
X183366587Y-110681194D01*
X183369633Y-110679933D01*
X183373062Y-110677118D01*
X183376825Y-110674750D01*
X183378989Y-110672254D01*
X183388575Y-110664388D01*
X183450480Y-110602483D01*
X183458346Y-110592897D01*
X183460841Y-110590734D01*
X183463208Y-110586972D01*
X183466025Y-110583541D01*
X183467287Y-110580493D01*
X183473895Y-110569997D01*
X183535800Y-110446187D01*
X183544558Y-110423301D01*
X183544876Y-110418819D01*
X183546595Y-110414671D01*
X183548997Y-110390285D01*
X183548997Y-110080761D01*
X183546595Y-110056375D01*
X183544876Y-110052226D01*
X183544558Y-110047745D01*
X183535800Y-110024859D01*
X183473895Y-109901050D01*
X183467287Y-109890553D01*
X183466025Y-109887506D01*
X183463208Y-109884074D01*
X183460841Y-109880313D01*
X183458346Y-109878149D01*
X183450480Y-109868564D01*
X183388575Y-109806659D01*
X183378989Y-109798792D01*
X183376826Y-109796298D01*
X183373064Y-109793930D01*
X183369633Y-109791114D01*
X183366585Y-109789851D01*
X183356089Y-109783244D01*
X183232280Y-109721339D01*
X183209394Y-109712581D01*
X183204912Y-109712262D01*
X183200764Y-109710544D01*
X183176378Y-109708142D01*
X182866854Y-109708142D01*
X182842468Y-109710544D01*
X182838319Y-109712262D01*
X182833838Y-109712581D01*
X182831095Y-109713630D01*
X182856168Y-109462904D01*
X183362092Y-109462904D01*
X183386478Y-109460502D01*
X183431538Y-109441838D01*
X183466026Y-109407350D01*
X183484690Y-109362290D01*
X183484690Y-109353538D01*
X183671407Y-109353538D01*
X183676840Y-109377432D01*
X184110173Y-110677432D01*
X184120163Y-110699807D01*
X184126013Y-110706553D01*
X184130009Y-110714544D01*
X184141850Y-110724813D01*
X184152118Y-110736653D01*
X184160107Y-110740647D01*
X184166854Y-110746499D01*
X184181721Y-110751454D01*
X184195742Y-110758465D01*
X184204652Y-110759098D01*
X184213124Y-110761922D01*
X184228757Y-110760811D01*
X184244392Y-110761922D01*
X184252863Y-110759098D01*
X184261773Y-110758465D01*
X184275793Y-110751454D01*
X184290661Y-110746499D01*
X184297407Y-110740648D01*
X184305398Y-110736653D01*
X184315667Y-110724811D01*
X184327507Y-110714544D01*
X184331501Y-110706555D01*
X184337353Y-110699808D01*
X184347343Y-110677433D01*
X184780678Y-109377432D01*
X184786110Y-109353538D01*
X184784999Y-109337904D01*
X185960901Y-109337904D01*
X185960901Y-110452190D01*
X185963303Y-110476576D01*
X185965021Y-110480724D01*
X185965340Y-110485206D01*
X185974098Y-110508092D01*
X186036003Y-110631902D01*
X186038568Y-110635977D01*
X186039211Y-110637905D01*
X186041292Y-110640305D01*
X186049057Y-110652639D01*
X186060896Y-110662907D01*
X186071168Y-110674750D01*
X186083505Y-110682516D01*
X186085902Y-110684595D01*
X186087826Y-110685236D01*
X186091905Y-110687804D01*
X186215715Y-110749708D01*
X186238600Y-110758465D01*
X186287250Y-110761922D01*
X186333521Y-110746499D01*
X186370365Y-110714542D01*
X186392177Y-110670919D01*
X186395634Y-110622269D01*
X186380210Y-110575999D01*
X186348254Y-110539154D01*
X186327517Y-110526100D01*
X186240974Y-110482829D01*
X186210901Y-110422682D01*
X186210901Y-109956952D01*
X186579949Y-109956952D01*
X186579949Y-110452190D01*
X186582351Y-110476576D01*
X186584069Y-110480725D01*
X186584388Y-110485205D01*
X186593145Y-110508091D01*
X186655049Y-110631901D01*
X186657615Y-110635978D01*
X186658258Y-110637905D01*
X186660338Y-110640303D01*
X186668103Y-110652638D01*
X186679943Y-110662907D01*
X186690215Y-110674750D01*
X186702553Y-110682516D01*
X186704948Y-110684594D01*
X186706871Y-110685235D01*
X186710952Y-110687804D01*
X186834762Y-110749708D01*
X186857647Y-110758465D01*
X186862127Y-110758783D01*
X186866277Y-110760502D01*
X186890663Y-110762904D01*
X187138282Y-110762904D01*
X187162668Y-110760502D01*
X187166816Y-110758783D01*
X187171298Y-110758465D01*
X187194183Y-110749708D01*
X187317992Y-110687804D01*
X187338729Y-110674750D01*
X187370685Y-110637905D01*
X187386109Y-110591634D01*
X187382651Y-110542985D01*
X187360840Y-110499362D01*
X187323995Y-110467405D01*
X187277725Y-110451982D01*
X187229075Y-110455439D01*
X187206189Y-110464197D01*
X187108773Y-110512904D01*
X186920172Y-110512904D01*
X186860022Y-110482830D01*
X186829949Y-110422681D01*
X186829949Y-110307046D01*
X187348381Y-110203359D01*
X187348382Y-110203359D01*
X187348382Y-110203358D01*
X187348511Y-110203333D01*
X187371952Y-110196196D01*
X187382127Y-110189381D01*
X187393442Y-110184695D01*
X187402192Y-110175944D01*
X187412477Y-110169057D01*
X187419271Y-110158865D01*
X187427930Y-110150207D01*
X187432665Y-110138775D01*
X187439532Y-110128475D01*
X187441909Y-110116457D01*
X187446594Y-110105147D01*
X187448996Y-110080761D01*
X187448996Y-109956952D01*
X187446594Y-109932566D01*
X187444875Y-109928417D01*
X187444557Y-109923936D01*
X187435799Y-109901050D01*
X187380027Y-109789507D01*
X187633672Y-109789507D01*
X187639612Y-109813280D01*
X187949136Y-110679946D01*
X187959600Y-110702104D01*
X187963811Y-110706755D01*
X187966497Y-110712426D01*
X187980055Y-110724699D01*
X187992332Y-110738261D01*
X187998003Y-110740947D01*
X188002655Y-110745158D01*
X188019881Y-110751310D01*
X188036411Y-110759140D01*
X188042675Y-110759451D01*
X188048585Y-110761562D01*
X188066854Y-110760653D01*
X188085123Y-110761562D01*
X188091032Y-110759451D01*
X188097297Y-110759140D01*
X188113824Y-110751311D01*
X188131054Y-110745158D01*
X188135705Y-110740946D01*
X188141376Y-110738261D01*
X188153649Y-110724702D01*
X188167211Y-110712426D01*
X188169897Y-110706754D01*
X188174108Y-110702103D01*
X188184572Y-110679946D01*
X188442784Y-109956952D01*
X188684711Y-109956952D01*
X188684711Y-110452190D01*
X188687113Y-110476576D01*
X188688831Y-110480725D01*
X188689150Y-110485205D01*
X188697907Y-110508091D01*
X188759811Y-110631901D01*
X188762377Y-110635978D01*
X188763020Y-110637905D01*
X188765100Y-110640303D01*
X188772865Y-110652638D01*
X188784705Y-110662907D01*
X188794977Y-110674750D01*
X188807315Y-110682516D01*
X188809710Y-110684594D01*
X188811633Y-110685235D01*
X188815714Y-110687804D01*
X188939524Y-110749708D01*
X188962409Y-110758465D01*
X188966889Y-110758783D01*
X188971039Y-110760502D01*
X188995425Y-110762904D01*
X189243044Y-110762904D01*
X189267430Y-110760502D01*
X189271578Y-110758783D01*
X189276060Y-110758465D01*
X189298945Y-110749708D01*
X189422754Y-110687804D01*
X189443491Y-110674750D01*
X189475447Y-110637905D01*
X189490871Y-110591634D01*
X189487413Y-110542985D01*
X189465602Y-110499362D01*
X189428757Y-110467405D01*
X189382487Y-110451982D01*
X189333837Y-110455439D01*
X189310951Y-110464197D01*
X189213535Y-110512904D01*
X189024934Y-110512904D01*
X188964784Y-110482830D01*
X188934711Y-110422681D01*
X188934711Y-110307046D01*
X189453143Y-110203359D01*
X189453144Y-110203359D01*
X189453144Y-110203358D01*
X189453273Y-110203333D01*
X189476714Y-110196196D01*
X189486889Y-110189381D01*
X189498204Y-110184695D01*
X189506954Y-110175944D01*
X189517239Y-110169057D01*
X189524033Y-110158865D01*
X189532692Y-110150207D01*
X189537427Y-110138775D01*
X189544294Y-110128475D01*
X189546671Y-110116457D01*
X189551356Y-110105147D01*
X189553758Y-110080761D01*
X189553758Y-109956952D01*
X189551356Y-109932566D01*
X189549637Y-109928417D01*
X189549319Y-109923936D01*
X189540561Y-109901050D01*
X189478656Y-109777240D01*
X189476088Y-109773161D01*
X189475447Y-109771237D01*
X189473368Y-109768840D01*
X189465602Y-109756503D01*
X189453760Y-109746233D01*
X189443491Y-109734392D01*
X189431153Y-109726625D01*
X189428757Y-109724547D01*
X189426832Y-109723905D01*
X189422754Y-109721338D01*
X189298945Y-109659434D01*
X189276060Y-109650677D01*
X189271578Y-109650358D01*
X189267430Y-109648640D01*
X189243044Y-109646238D01*
X188995425Y-109646238D01*
X188971039Y-109648640D01*
X188966889Y-109650358D01*
X188962409Y-109650677D01*
X188939524Y-109659434D01*
X188815714Y-109721338D01*
X188811633Y-109723906D01*
X188809710Y-109724548D01*
X188807315Y-109726625D01*
X188794977Y-109734392D01*
X188784705Y-109746234D01*
X188772865Y-109756504D01*
X188765100Y-109768838D01*
X188763020Y-109771237D01*
X188762377Y-109773163D01*
X188759811Y-109777241D01*
X188697907Y-109901051D01*
X188689150Y-109923937D01*
X188688831Y-109928416D01*
X188687113Y-109932566D01*
X188684711Y-109956952D01*
X188442784Y-109956952D01*
X188494095Y-109813280D01*
X188500035Y-109789506D01*
X188497613Y-109740794D01*
X188476734Y-109696716D01*
X188440577Y-109663984D01*
X188394646Y-109647580D01*
X188345934Y-109650001D01*
X188301855Y-109670881D01*
X188269123Y-109707038D01*
X188258659Y-109729196D01*
X188066853Y-110266251D01*
X187875048Y-109729196D01*
X187864584Y-109707038D01*
X187831852Y-109670881D01*
X187787773Y-109650002D01*
X187739061Y-109647580D01*
X187693130Y-109663984D01*
X187656973Y-109696716D01*
X187636094Y-109740795D01*
X187633672Y-109789507D01*
X187380027Y-109789507D01*
X187373894Y-109777240D01*
X187371326Y-109773161D01*
X187370685Y-109771237D01*
X187368606Y-109768840D01*
X187360840Y-109756503D01*
X187348998Y-109746233D01*
X187338729Y-109734392D01*
X187326391Y-109726625D01*
X187323995Y-109724547D01*
X187322070Y-109723905D01*
X187317992Y-109721338D01*
X187194183Y-109659434D01*
X187171298Y-109650677D01*
X187166816Y-109650358D01*
X187162668Y-109648640D01*
X187138282Y-109646238D01*
X186890663Y-109646238D01*
X186866277Y-109648640D01*
X186862127Y-109650358D01*
X186857647Y-109650677D01*
X186834762Y-109659434D01*
X186710952Y-109721338D01*
X186706871Y-109723906D01*
X186704948Y-109724548D01*
X186702553Y-109726625D01*
X186690215Y-109734392D01*
X186679943Y-109746234D01*
X186668103Y-109756504D01*
X186660338Y-109768838D01*
X186658258Y-109771237D01*
X186657615Y-109773163D01*
X186655049Y-109777241D01*
X186593145Y-109901051D01*
X186584388Y-109923937D01*
X186584069Y-109928416D01*
X186582351Y-109932566D01*
X186579949Y-109956952D01*
X186210901Y-109956952D01*
X186210901Y-109337904D01*
X189860901Y-109337904D01*
X189860901Y-110452190D01*
X189863303Y-110476576D01*
X189865021Y-110480724D01*
X189865340Y-110485206D01*
X189874098Y-110508092D01*
X189936003Y-110631902D01*
X189938568Y-110635977D01*
X189939211Y-110637905D01*
X189941292Y-110640305D01*
X189949057Y-110652639D01*
X189960896Y-110662907D01*
X189971168Y-110674750D01*
X189983505Y-110682516D01*
X189985902Y-110684595D01*
X189987826Y-110685236D01*
X189991905Y-110687804D01*
X190115715Y-110749708D01*
X190138600Y-110758465D01*
X190187250Y-110761922D01*
X190233521Y-110746499D01*
X190270365Y-110714542D01*
X190292177Y-110670919D01*
X190295634Y-110622269D01*
X190280210Y-110575999D01*
X190248254Y-110539154D01*
X190227517Y-110526100D01*
X190140974Y-110482829D01*
X190110901Y-110422682D01*
X190110901Y-109956952D01*
X191470425Y-109956952D01*
X191470425Y-110018857D01*
X191472827Y-110043243D01*
X191474545Y-110047391D01*
X191474864Y-110051873D01*
X191483621Y-110074758D01*
X191545525Y-110198567D01*
X191548092Y-110202645D01*
X191548734Y-110204570D01*
X191550812Y-110206966D01*
X191558579Y-110219304D01*
X191570420Y-110229573D01*
X191580690Y-110241415D01*
X191593027Y-110249181D01*
X191595424Y-110251260D01*
X191597348Y-110251901D01*
X191601427Y-110254469D01*
X191725237Y-110316374D01*
X191748123Y-110325132D01*
X191752604Y-110325450D01*
X191756753Y-110327169D01*
X191781139Y-110329571D01*
X191937345Y-110329571D01*
X191997492Y-110359644D01*
X192027567Y-110419793D01*
X192027567Y-110422681D01*
X191997493Y-110482830D01*
X191937344Y-110512904D01*
X191748743Y-110512904D01*
X191651326Y-110464196D01*
X191628441Y-110455439D01*
X191579791Y-110451981D01*
X191533520Y-110467405D01*
X191496676Y-110499361D01*
X191474864Y-110542984D01*
X191471406Y-110591634D01*
X191486830Y-110637905D01*
X191518786Y-110674749D01*
X191539524Y-110687804D01*
X191663332Y-110749707D01*
X191686218Y-110758465D01*
X191690698Y-110758783D01*
X191694848Y-110760502D01*
X191719234Y-110762904D01*
X191966853Y-110762904D01*
X191991239Y-110760502D01*
X191995388Y-110758783D01*
X191999868Y-110758465D01*
X192022754Y-110749708D01*
X192146564Y-110687804D01*
X192150641Y-110685237D01*
X192152568Y-110684595D01*
X192154966Y-110682514D01*
X192167301Y-110674750D01*
X192177570Y-110662909D01*
X192189413Y-110652638D01*
X192197179Y-110640299D01*
X192199257Y-110637905D01*
X192199898Y-110635981D01*
X192202467Y-110631901D01*
X192264371Y-110508091D01*
X192273128Y-110485206D01*
X192273446Y-110480725D01*
X192275165Y-110476576D01*
X192277567Y-110452190D01*
X192277567Y-110390285D01*
X192275165Y-110365899D01*
X192273446Y-110361749D01*
X192273128Y-110357269D01*
X192264370Y-110334383D01*
X192202467Y-110210575D01*
X192199899Y-110206496D01*
X192199258Y-110204572D01*
X192197178Y-110202174D01*
X192189412Y-110189837D01*
X192177570Y-110179566D01*
X192167302Y-110167727D01*
X192154968Y-110159963D01*
X192152568Y-110157881D01*
X192150640Y-110157238D01*
X192146565Y-110154673D01*
X192022755Y-110092768D01*
X191999869Y-110084010D01*
X191995387Y-110083691D01*
X191991239Y-110081973D01*
X191966853Y-110079571D01*
X191810647Y-110079571D01*
X191750498Y-110049496D01*
X191720425Y-109989348D01*
X191720425Y-109986460D01*
X191750498Y-109926311D01*
X191810648Y-109896238D01*
X191937344Y-109896238D01*
X192034762Y-109944946D01*
X192057647Y-109953703D01*
X192106297Y-109957160D01*
X192152568Y-109941737D01*
X192189412Y-109909780D01*
X192211224Y-109866157D01*
X192214681Y-109817507D01*
X192199257Y-109771237D01*
X192167301Y-109734392D01*
X192146564Y-109721338D01*
X192022754Y-109659434D01*
X191999868Y-109650677D01*
X191995388Y-109650358D01*
X191991239Y-109648640D01*
X191966853Y-109646238D01*
X191781139Y-109646238D01*
X191756753Y-109648640D01*
X191752603Y-109650358D01*
X191748123Y-109650677D01*
X191725238Y-109659434D01*
X191601428Y-109721338D01*
X191597347Y-109723906D01*
X191595424Y-109724548D01*
X191593029Y-109726625D01*
X191580691Y-109734392D01*
X191570419Y-109746234D01*
X191558579Y-109756504D01*
X191550814Y-109768838D01*
X191548734Y-109771237D01*
X191548091Y-109773163D01*
X191545525Y-109777241D01*
X191483621Y-109901051D01*
X191474864Y-109923937D01*
X191474545Y-109928416D01*
X191472827Y-109932566D01*
X191470425Y-109956952D01*
X190110901Y-109956952D01*
X190110901Y-109337904D01*
X192584710Y-109337904D01*
X192584710Y-110637904D01*
X192587112Y-110662290D01*
X192605776Y-110707350D01*
X192640264Y-110741838D01*
X192685324Y-110760502D01*
X192734096Y-110760502D01*
X192779156Y-110741838D01*
X192813644Y-110707350D01*
X192832308Y-110662290D01*
X192834710Y-110637904D01*
X192834710Y-109946823D01*
X192845657Y-109935875D01*
X192924934Y-109896238D01*
X193051630Y-109896238D01*
X193111778Y-109926311D01*
X193141853Y-109986460D01*
X193141853Y-110637904D01*
X193144255Y-110662290D01*
X193162919Y-110707350D01*
X193197407Y-110741838D01*
X193242467Y-110760502D01*
X193291239Y-110760502D01*
X193336299Y-110741838D01*
X193370787Y-110707350D01*
X193389451Y-110662290D01*
X193391853Y-110637904D01*
X193391853Y-109956952D01*
X193389451Y-109932566D01*
X193387732Y-109928417D01*
X193387414Y-109923936D01*
X193378656Y-109901050D01*
X193316751Y-109777240D01*
X193314183Y-109773161D01*
X193313542Y-109771238D01*
X193760900Y-109771238D01*
X193760900Y-110637904D01*
X193763302Y-110662290D01*
X193781966Y-110707350D01*
X193816454Y-110741838D01*
X193861514Y-110760502D01*
X193910286Y-110760502D01*
X193955346Y-110741838D01*
X193989834Y-110707350D01*
X194008498Y-110662290D01*
X194010900Y-110637904D01*
X194010900Y-109771238D01*
X194008498Y-109746852D01*
X194196636Y-109746852D01*
X194196636Y-109795624D01*
X194215300Y-109840684D01*
X194249788Y-109875172D01*
X194294848Y-109893836D01*
X194319234Y-109896238D01*
X194379948Y-109896238D01*
X194379948Y-110637904D01*
X194382350Y-110662290D01*
X194401014Y-110707350D01*
X194435502Y-110741838D01*
X194480562Y-110760502D01*
X194529334Y-110760502D01*
X194574394Y-110741838D01*
X194608882Y-110707350D01*
X194627546Y-110662290D01*
X194629948Y-110637904D01*
X194629948Y-109896238D01*
X194814472Y-109896238D01*
X194838858Y-109893836D01*
X194883918Y-109875172D01*
X194918406Y-109840684D01*
X194937070Y-109795624D01*
X194937070Y-109746852D01*
X194939493Y-109746852D01*
X194939493Y-109795624D01*
X194958157Y-109840684D01*
X194992645Y-109875172D01*
X195037705Y-109893836D01*
X195062091Y-109896238D01*
X195122805Y-109896238D01*
X195122805Y-110452190D01*
X195125207Y-110476576D01*
X195126925Y-110480724D01*
X195127244Y-110485206D01*
X195136002Y-110508092D01*
X195197907Y-110631902D01*
X195200472Y-110635977D01*
X195201115Y-110637905D01*
X195203196Y-110640305D01*
X195210961Y-110652639D01*
X195222800Y-110662907D01*
X195233072Y-110674750D01*
X195245409Y-110682516D01*
X195247806Y-110684595D01*
X195249730Y-110685236D01*
X195253809Y-110687804D01*
X195377619Y-110749708D01*
X195400504Y-110758465D01*
X195404984Y-110758783D01*
X195409134Y-110760502D01*
X195433520Y-110762904D01*
X195557329Y-110762904D01*
X195581715Y-110760502D01*
X195626775Y-110741838D01*
X195661263Y-110707350D01*
X195679927Y-110662290D01*
X195679927Y-110613518D01*
X195661263Y-110568458D01*
X195626775Y-110533970D01*
X195581715Y-110515306D01*
X195557329Y-110512904D01*
X195463029Y-110512904D01*
X195402878Y-110482829D01*
X195372805Y-110422682D01*
X195372805Y-109896238D01*
X195557329Y-109896238D01*
X195581715Y-109893836D01*
X195626775Y-109875172D01*
X195661263Y-109840684D01*
X195679927Y-109795624D01*
X195679927Y-109746852D01*
X195661263Y-109701792D01*
X195626775Y-109667304D01*
X195581715Y-109648640D01*
X195557329Y-109646238D01*
X195372805Y-109646238D01*
X195372805Y-109337904D01*
X195370403Y-109313518D01*
X195351739Y-109268458D01*
X195317251Y-109233970D01*
X195272191Y-109215306D01*
X195223419Y-109215306D01*
X195178359Y-109233970D01*
X195143871Y-109268458D01*
X195125207Y-109313518D01*
X195122805Y-109337904D01*
X195122805Y-109646238D01*
X195062091Y-109646238D01*
X195037705Y-109648640D01*
X194992645Y-109667304D01*
X194958157Y-109701792D01*
X194939493Y-109746852D01*
X194937070Y-109746852D01*
X194918406Y-109701792D01*
X194883918Y-109667304D01*
X194838858Y-109648640D01*
X194814472Y-109646238D01*
X194629948Y-109646238D01*
X194629948Y-109553127D01*
X194660022Y-109492978D01*
X194720171Y-109462904D01*
X194814472Y-109462904D01*
X194838858Y-109460502D01*
X194883918Y-109441838D01*
X194918406Y-109407350D01*
X194937070Y-109362290D01*
X194937070Y-109313518D01*
X194918406Y-109268458D01*
X194883918Y-109233970D01*
X194838858Y-109215306D01*
X194814472Y-109212904D01*
X194690663Y-109212904D01*
X194666277Y-109215306D01*
X194662128Y-109217024D01*
X194657647Y-109217343D01*
X194634761Y-109226101D01*
X194510951Y-109288006D01*
X194506874Y-109290572D01*
X194504949Y-109291214D01*
X194502550Y-109293293D01*
X194490214Y-109301060D01*
X194479944Y-109312900D01*
X194468104Y-109323170D01*
X194460337Y-109335506D01*
X194458258Y-109337905D01*
X194457616Y-109339830D01*
X194455050Y-109343907D01*
X194393145Y-109467717D01*
X194384387Y-109490603D01*
X194384068Y-109495084D01*
X194382350Y-109499233D01*
X194379948Y-109523619D01*
X194379948Y-109646238D01*
X194319234Y-109646238D01*
X194294848Y-109648640D01*
X194249788Y-109667304D01*
X194215300Y-109701792D01*
X194196636Y-109746852D01*
X194008498Y-109746852D01*
X193989834Y-109701792D01*
X193955346Y-109667304D01*
X193910286Y-109648640D01*
X193861514Y-109648640D01*
X193816454Y-109667304D01*
X193781966Y-109701792D01*
X193763302Y-109746852D01*
X193760900Y-109771238D01*
X193313542Y-109771238D01*
X193313542Y-109771237D01*
X193311463Y-109768840D01*
X193303697Y-109756503D01*
X193291855Y-109746233D01*
X193281586Y-109734392D01*
X193269248Y-109726625D01*
X193266852Y-109724547D01*
X193264927Y-109723905D01*
X193260849Y-109721338D01*
X193137040Y-109659434D01*
X193114155Y-109650677D01*
X193109673Y-109650358D01*
X193105525Y-109648640D01*
X193081139Y-109646238D01*
X192895425Y-109646238D01*
X192871039Y-109648640D01*
X192866889Y-109650358D01*
X192862409Y-109650677D01*
X192839524Y-109659434D01*
X192834710Y-109661840D01*
X192834710Y-109375421D01*
X193701398Y-109375421D01*
X193701398Y-109375422D01*
X193701398Y-109375423D01*
X193701398Y-109424197D01*
X193708706Y-109441838D01*
X193720062Y-109469255D01*
X193735607Y-109488197D01*
X193797511Y-109550102D01*
X193816453Y-109565647D01*
X193816454Y-109565648D01*
X193835117Y-109573378D01*
X193861512Y-109584312D01*
X193861513Y-109584312D01*
X193861514Y-109584312D01*
X193910286Y-109584312D01*
X193910287Y-109584312D01*
X193923484Y-109578845D01*
X193955346Y-109565648D01*
X193955351Y-109565642D01*
X193974288Y-109550102D01*
X194036193Y-109488197D01*
X194051738Y-109469255D01*
X194070403Y-109424196D01*
X194070403Y-109375422D01*
X194051738Y-109330363D01*
X194051737Y-109330362D01*
X194036193Y-109311421D01*
X193974288Y-109249516D01*
X193955351Y-109233975D01*
X193955346Y-109233970D01*
X193923484Y-109220772D01*
X193910287Y-109215306D01*
X193910286Y-109215306D01*
X193861512Y-109215306D01*
X193835452Y-109226101D01*
X193816454Y-109233970D01*
X193816453Y-109233971D01*
X193797511Y-109249516D01*
X193735607Y-109311421D01*
X193720062Y-109330363D01*
X193716938Y-109337905D01*
X193701398Y-109375421D01*
X192834710Y-109375421D01*
X192834710Y-109337904D01*
X192832308Y-109313518D01*
X192813644Y-109268458D01*
X192779156Y-109233970D01*
X192734096Y-109215306D01*
X192685324Y-109215306D01*
X192640264Y-109233970D01*
X192605776Y-109268458D01*
X192587112Y-109313518D01*
X192584710Y-109337904D01*
X190110901Y-109337904D01*
X190108499Y-109313518D01*
X190089835Y-109268458D01*
X190055347Y-109233970D01*
X190010287Y-109215306D01*
X189961515Y-109215306D01*
X189916455Y-109233970D01*
X189881967Y-109268458D01*
X189863303Y-109313518D01*
X189860901Y-109337904D01*
X186210901Y-109337904D01*
X186208499Y-109313518D01*
X186189835Y-109268458D01*
X186155347Y-109233970D01*
X186110287Y-109215306D01*
X186061515Y-109215306D01*
X186016455Y-109233970D01*
X185981967Y-109268458D01*
X185963303Y-109313518D01*
X185960901Y-109337904D01*
X184784999Y-109337904D01*
X184782653Y-109304888D01*
X184760841Y-109261264D01*
X184723996Y-109229308D01*
X184677727Y-109213885D01*
X184629077Y-109217342D01*
X184585452Y-109239154D01*
X184553497Y-109276000D01*
X184543507Y-109298375D01*
X184228758Y-110242620D01*
X183914010Y-109298376D01*
X183904020Y-109276001D01*
X183872065Y-109239155D01*
X183828440Y-109217343D01*
X183779791Y-109213886D01*
X183733522Y-109229309D01*
X183696676Y-109261264D01*
X183674864Y-109304889D01*
X183671407Y-109353538D01*
X183484690Y-109353538D01*
X183484690Y-109313518D01*
X183466026Y-109268458D01*
X183431538Y-109233970D01*
X183386478Y-109215306D01*
X183362092Y-109212904D01*
X182743044Y-109212904D01*
X182734023Y-109213792D01*
X182730978Y-109213488D01*
X182728003Y-109214385D01*
X182718658Y-109215306D01*
X182701776Y-109222298D01*
X182684284Y-109227576D01*
X182679412Y-109231561D01*
X182673598Y-109233970D01*
X182660677Y-109246890D01*
X182646536Y-109258461D01*
X182643561Y-109264006D01*
X182639110Y-109268458D01*
X182632116Y-109285342D01*
X182623481Y-109301441D01*
X182621635Y-109310646D01*
X182620446Y-109313518D01*
X182620446Y-109316578D01*
X182618664Y-109325467D01*
X182556760Y-109944514D01*
X182556724Y-109969018D01*
X181026459Y-109969018D01*
X180186934Y-109654197D01*
X180163258Y-109647883D01*
X180114513Y-109649537D01*
X180070112Y-109669720D01*
X180036814Y-109705358D01*
X180019689Y-109751024D01*
X178037828Y-109751024D01*
X178020703Y-109705358D01*
X177987406Y-109669720D01*
X177943004Y-109649537D01*
X177894260Y-109647883D01*
X177870583Y-109654197D01*
X176880106Y-110025625D01*
X176858116Y-110036436D01*
X176854976Y-110039369D01*
X176851064Y-110041148D01*
X176837256Y-110055926D01*
X176822478Y-110069734D01*
X176820699Y-110073646D01*
X176817766Y-110076786D01*
X176810665Y-110095721D01*
X176802295Y-110114135D01*
X176802149Y-110118430D01*
X176800641Y-110122452D01*
X175370432Y-110122452D01*
X175618773Y-109377432D01*
X175624205Y-109353538D01*
X175620748Y-109304888D01*
X175598936Y-109261264D01*
X175562091Y-109229308D01*
X175515822Y-109213885D01*
X175467172Y-109217342D01*
X175423547Y-109239154D01*
X175391592Y-109276000D01*
X175381602Y-109298375D01*
X175066853Y-110242620D01*
X174752105Y-109298376D01*
X174742115Y-109276001D01*
X174710160Y-109239155D01*
X174666535Y-109217343D01*
X174617886Y-109213886D01*
X174571617Y-109229309D01*
X174534771Y-109261264D01*
X174512959Y-109304889D01*
X174509502Y-109353538D01*
X174386005Y-109353538D01*
X174384690Y-109333820D01*
X174384690Y-109313518D01*
X174383076Y-109309622D01*
X174382796Y-109305416D01*
X174373796Y-109287217D01*
X174366026Y-109268458D01*
X174363044Y-109265476D01*
X174361176Y-109261698D01*
X174345895Y-109248327D01*
X174331538Y-109233970D01*
X174327643Y-109232356D01*
X174324471Y-109229581D01*
X174305232Y-109223074D01*
X174286478Y-109215306D01*
X174280533Y-109214720D01*
X174278270Y-109213955D01*
X174274985Y-109214174D01*
X174262092Y-109212904D01*
X173457330Y-109212904D01*
X173432944Y-109215306D01*
X173387884Y-109233970D01*
X173353396Y-109268458D01*
X173334732Y-109313518D01*
X172527547Y-109313518D01*
X172525933Y-109309622D01*
X172525653Y-109305416D01*
X172516653Y-109287217D01*
X172508883Y-109268458D01*
X172505901Y-109265476D01*
X172504033Y-109261698D01*
X172488752Y-109248327D01*
X172474395Y-109233970D01*
X172470500Y-109232356D01*
X172467328Y-109229581D01*
X172448089Y-109223074D01*
X172429335Y-109215306D01*
X172423390Y-109214720D01*
X172421127Y-109213955D01*
X172417842Y-109214174D01*
X172404949Y-109212904D01*
X171600187Y-109212904D01*
X171575801Y-109215306D01*
X171530741Y-109233970D01*
X171496253Y-109268458D01*
X171477589Y-109313518D01*
X171333145Y-109313518D01*
X171333145Y-109068460D01*
X195824371Y-109068460D01*
X195824371Y-110907348D01*
G37*
D11*
X171273333Y-107654819D02*
X170940000Y-107178628D01*
X170701905Y-107654819D02*
X170701905Y-106654819D01*
X170701905Y-106654819D02*
X171082857Y-106654819D01*
X171082857Y-106654819D02*
X171178095Y-106702438D01*
X171178095Y-106702438D02*
X171225714Y-106750057D01*
X171225714Y-106750057D02*
X171273333Y-106845295D01*
X171273333Y-106845295D02*
X171273333Y-106988152D01*
X171273333Y-106988152D02*
X171225714Y-107083390D01*
X171225714Y-107083390D02*
X171178095Y-107131009D01*
X171178095Y-107131009D02*
X171082857Y-107178628D01*
X171082857Y-107178628D02*
X170701905Y-107178628D01*
X172225714Y-107654819D02*
X171654286Y-107654819D01*
X171940000Y-107654819D02*
X171940000Y-106654819D01*
X171940000Y-106654819D02*
X171844762Y-106797676D01*
X171844762Y-106797676D02*
X171749524Y-106892914D01*
X171749524Y-106892914D02*
X171654286Y-106940533D01*
X175378333Y-102739580D02*
X175330714Y-102787200D01*
X175330714Y-102787200D02*
X175187857Y-102834819D01*
X175187857Y-102834819D02*
X175092619Y-102834819D01*
X175092619Y-102834819D02*
X174949762Y-102787200D01*
X174949762Y-102787200D02*
X174854524Y-102691961D01*
X174854524Y-102691961D02*
X174806905Y-102596723D01*
X174806905Y-102596723D02*
X174759286Y-102406247D01*
X174759286Y-102406247D02*
X174759286Y-102263390D01*
X174759286Y-102263390D02*
X174806905Y-102072914D01*
X174806905Y-102072914D02*
X174854524Y-101977676D01*
X174854524Y-101977676D02*
X174949762Y-101882438D01*
X174949762Y-101882438D02*
X175092619Y-101834819D01*
X175092619Y-101834819D02*
X175187857Y-101834819D01*
X175187857Y-101834819D02*
X175330714Y-101882438D01*
X175330714Y-101882438D02*
X175378333Y-101930057D01*
X176330714Y-102834819D02*
X175759286Y-102834819D01*
X176045000Y-102834819D02*
X176045000Y-101834819D01*
X176045000Y-101834819D02*
X175949762Y-101977676D01*
X175949762Y-101977676D02*
X175854524Y-102072914D01*
X175854524Y-102072914D02*
X175759286Y-102120533D01*
X194403333Y-99589580D02*
X194355714Y-99637200D01*
X194355714Y-99637200D02*
X194212857Y-99684819D01*
X194212857Y-99684819D02*
X194117619Y-99684819D01*
X194117619Y-99684819D02*
X193974762Y-99637200D01*
X193974762Y-99637200D02*
X193879524Y-99541961D01*
X193879524Y-99541961D02*
X193831905Y-99446723D01*
X193831905Y-99446723D02*
X193784286Y-99256247D01*
X193784286Y-99256247D02*
X193784286Y-99113390D01*
X193784286Y-99113390D02*
X193831905Y-98922914D01*
X193831905Y-98922914D02*
X193879524Y-98827676D01*
X193879524Y-98827676D02*
X193974762Y-98732438D01*
X193974762Y-98732438D02*
X194117619Y-98684819D01*
X194117619Y-98684819D02*
X194212857Y-98684819D01*
X194212857Y-98684819D02*
X194355714Y-98732438D01*
X194355714Y-98732438D02*
X194403333Y-98780057D01*
X195260476Y-99018152D02*
X195260476Y-99684819D01*
X195022381Y-98637200D02*
X194784286Y-99351485D01*
X194784286Y-99351485D02*
X195403333Y-99351485D01*
X184478333Y-102639580D02*
X184430714Y-102687200D01*
X184430714Y-102687200D02*
X184287857Y-102734819D01*
X184287857Y-102734819D02*
X184192619Y-102734819D01*
X184192619Y-102734819D02*
X184049762Y-102687200D01*
X184049762Y-102687200D02*
X183954524Y-102591961D01*
X183954524Y-102591961D02*
X183906905Y-102496723D01*
X183906905Y-102496723D02*
X183859286Y-102306247D01*
X183859286Y-102306247D02*
X183859286Y-102163390D01*
X183859286Y-102163390D02*
X183906905Y-101972914D01*
X183906905Y-101972914D02*
X183954524Y-101877676D01*
X183954524Y-101877676D02*
X184049762Y-101782438D01*
X184049762Y-101782438D02*
X184192619Y-101734819D01*
X184192619Y-101734819D02*
X184287857Y-101734819D01*
X184287857Y-101734819D02*
X184430714Y-101782438D01*
X184430714Y-101782438D02*
X184478333Y-101830057D01*
X185383095Y-101734819D02*
X184906905Y-101734819D01*
X184906905Y-101734819D02*
X184859286Y-102211009D01*
X184859286Y-102211009D02*
X184906905Y-102163390D01*
X184906905Y-102163390D02*
X185002143Y-102115771D01*
X185002143Y-102115771D02*
X185240238Y-102115771D01*
X185240238Y-102115771D02*
X185335476Y-102163390D01*
X185335476Y-102163390D02*
X185383095Y-102211009D01*
X185383095Y-102211009D02*
X185430714Y-102306247D01*
X185430714Y-102306247D02*
X185430714Y-102544342D01*
X185430714Y-102544342D02*
X185383095Y-102639580D01*
X185383095Y-102639580D02*
X185335476Y-102687200D01*
X185335476Y-102687200D02*
X185240238Y-102734819D01*
X185240238Y-102734819D02*
X185002143Y-102734819D01*
X185002143Y-102734819D02*
X184906905Y-102687200D01*
X184906905Y-102687200D02*
X184859286Y-102639580D01*
X169033333Y-101259580D02*
X168985714Y-101307200D01*
X168985714Y-101307200D02*
X168842857Y-101354819D01*
X168842857Y-101354819D02*
X168747619Y-101354819D01*
X168747619Y-101354819D02*
X168604762Y-101307200D01*
X168604762Y-101307200D02*
X168509524Y-101211961D01*
X168509524Y-101211961D02*
X168461905Y-101116723D01*
X168461905Y-101116723D02*
X168414286Y-100926247D01*
X168414286Y-100926247D02*
X168414286Y-100783390D01*
X168414286Y-100783390D02*
X168461905Y-100592914D01*
X168461905Y-100592914D02*
X168509524Y-100497676D01*
X168509524Y-100497676D02*
X168604762Y-100402438D01*
X168604762Y-100402438D02*
X168747619Y-100354819D01*
X168747619Y-100354819D02*
X168842857Y-100354819D01*
X168842857Y-100354819D02*
X168985714Y-100402438D01*
X168985714Y-100402438D02*
X169033333Y-100450057D01*
X169414286Y-100450057D02*
X169461905Y-100402438D01*
X169461905Y-100402438D02*
X169557143Y-100354819D01*
X169557143Y-100354819D02*
X169795238Y-100354819D01*
X169795238Y-100354819D02*
X169890476Y-100402438D01*
X169890476Y-100402438D02*
X169938095Y-100450057D01*
X169938095Y-100450057D02*
X169985714Y-100545295D01*
X169985714Y-100545295D02*
X169985714Y-100640533D01*
X169985714Y-100640533D02*
X169938095Y-100783390D01*
X169938095Y-100783390D02*
X169366667Y-101354819D01*
X169366667Y-101354819D02*
X169985714Y-101354819D01*
X188433333Y-101254819D02*
X188100000Y-100778628D01*
X187861905Y-101254819D02*
X187861905Y-100254819D01*
X187861905Y-100254819D02*
X188242857Y-100254819D01*
X188242857Y-100254819D02*
X188338095Y-100302438D01*
X188338095Y-100302438D02*
X188385714Y-100350057D01*
X188385714Y-100350057D02*
X188433333Y-100445295D01*
X188433333Y-100445295D02*
X188433333Y-100588152D01*
X188433333Y-100588152D02*
X188385714Y-100683390D01*
X188385714Y-100683390D02*
X188338095Y-100731009D01*
X188338095Y-100731009D02*
X188242857Y-100778628D01*
X188242857Y-100778628D02*
X187861905Y-100778628D01*
X188766667Y-100254819D02*
X189385714Y-100254819D01*
X189385714Y-100254819D02*
X189052381Y-100635771D01*
X189052381Y-100635771D02*
X189195238Y-100635771D01*
X189195238Y-100635771D02*
X189290476Y-100683390D01*
X189290476Y-100683390D02*
X189338095Y-100731009D01*
X189338095Y-100731009D02*
X189385714Y-100826247D01*
X189385714Y-100826247D02*
X189385714Y-101064342D01*
X189385714Y-101064342D02*
X189338095Y-101159580D01*
X189338095Y-101159580D02*
X189290476Y-101207200D01*
X189290476Y-101207200D02*
X189195238Y-101254819D01*
X189195238Y-101254819D02*
X188909524Y-101254819D01*
X188909524Y-101254819D02*
X188814286Y-101207200D01*
X188814286Y-101207200D02*
X188766667Y-101159580D01*
X162026666Y-98904819D02*
X162026666Y-99619104D01*
X162026666Y-99619104D02*
X161979047Y-99761961D01*
X161979047Y-99761961D02*
X161883809Y-99857200D01*
X161883809Y-99857200D02*
X161740952Y-99904819D01*
X161740952Y-99904819D02*
X161645714Y-99904819D01*
X162455238Y-99000057D02*
X162502857Y-98952438D01*
X162502857Y-98952438D02*
X162598095Y-98904819D01*
X162598095Y-98904819D02*
X162836190Y-98904819D01*
X162836190Y-98904819D02*
X162931428Y-98952438D01*
X162931428Y-98952438D02*
X162979047Y-99000057D01*
X162979047Y-99000057D02*
X163026666Y-99095295D01*
X163026666Y-99095295D02*
X163026666Y-99190533D01*
X163026666Y-99190533D02*
X162979047Y-99333390D01*
X162979047Y-99333390D02*
X162407619Y-99904819D01*
X162407619Y-99904819D02*
X163026666Y-99904819D01*
X188233333Y-104254819D02*
X187900000Y-103778628D01*
X187661905Y-104254819D02*
X187661905Y-103254819D01*
X187661905Y-103254819D02*
X188042857Y-103254819D01*
X188042857Y-103254819D02*
X188138095Y-103302438D01*
X188138095Y-103302438D02*
X188185714Y-103350057D01*
X188185714Y-103350057D02*
X188233333Y-103445295D01*
X188233333Y-103445295D02*
X188233333Y-103588152D01*
X188233333Y-103588152D02*
X188185714Y-103683390D01*
X188185714Y-103683390D02*
X188138095Y-103731009D01*
X188138095Y-103731009D02*
X188042857Y-103778628D01*
X188042857Y-103778628D02*
X187661905Y-103778628D01*
X189090476Y-103588152D02*
X189090476Y-104254819D01*
X188852381Y-103207200D02*
X188614286Y-103921485D01*
X188614286Y-103921485D02*
X189233333Y-103921485D01*
X170778333Y-104854819D02*
X170445000Y-104378628D01*
X170206905Y-104854819D02*
X170206905Y-103854819D01*
X170206905Y-103854819D02*
X170587857Y-103854819D01*
X170587857Y-103854819D02*
X170683095Y-103902438D01*
X170683095Y-103902438D02*
X170730714Y-103950057D01*
X170730714Y-103950057D02*
X170778333Y-104045295D01*
X170778333Y-104045295D02*
X170778333Y-104188152D01*
X170778333Y-104188152D02*
X170730714Y-104283390D01*
X170730714Y-104283390D02*
X170683095Y-104331009D01*
X170683095Y-104331009D02*
X170587857Y-104378628D01*
X170587857Y-104378628D02*
X170206905Y-104378628D01*
X171159286Y-103950057D02*
X171206905Y-103902438D01*
X171206905Y-103902438D02*
X171302143Y-103854819D01*
X171302143Y-103854819D02*
X171540238Y-103854819D01*
X171540238Y-103854819D02*
X171635476Y-103902438D01*
X171635476Y-103902438D02*
X171683095Y-103950057D01*
X171683095Y-103950057D02*
X171730714Y-104045295D01*
X171730714Y-104045295D02*
X171730714Y-104140533D01*
X171730714Y-104140533D02*
X171683095Y-104283390D01*
X171683095Y-104283390D02*
X171111667Y-104854819D01*
X171111667Y-104854819D02*
X171730714Y-104854819D01*
X188233333Y-107454819D02*
X187900000Y-106978628D01*
X187661905Y-107454819D02*
X187661905Y-106454819D01*
X187661905Y-106454819D02*
X188042857Y-106454819D01*
X188042857Y-106454819D02*
X188138095Y-106502438D01*
X188138095Y-106502438D02*
X188185714Y-106550057D01*
X188185714Y-106550057D02*
X188233333Y-106645295D01*
X188233333Y-106645295D02*
X188233333Y-106788152D01*
X188233333Y-106788152D02*
X188185714Y-106883390D01*
X188185714Y-106883390D02*
X188138095Y-106931009D01*
X188138095Y-106931009D02*
X188042857Y-106978628D01*
X188042857Y-106978628D02*
X187661905Y-106978628D01*
X189138095Y-106454819D02*
X188661905Y-106454819D01*
X188661905Y-106454819D02*
X188614286Y-106931009D01*
X188614286Y-106931009D02*
X188661905Y-106883390D01*
X188661905Y-106883390D02*
X188757143Y-106835771D01*
X188757143Y-106835771D02*
X188995238Y-106835771D01*
X188995238Y-106835771D02*
X189090476Y-106883390D01*
X189090476Y-106883390D02*
X189138095Y-106931009D01*
X189138095Y-106931009D02*
X189185714Y-107026247D01*
X189185714Y-107026247D02*
X189185714Y-107264342D01*
X189185714Y-107264342D02*
X189138095Y-107359580D01*
X189138095Y-107359580D02*
X189090476Y-107407200D01*
X189090476Y-107407200D02*
X188995238Y-107454819D01*
X188995238Y-107454819D02*
X188757143Y-107454819D01*
X188757143Y-107454819D02*
X188661905Y-107407200D01*
X188661905Y-107407200D02*
X188614286Y-107359580D01*
X179338095Y-101409819D02*
X179338095Y-102219342D01*
X179338095Y-102219342D02*
X179385714Y-102314580D01*
X179385714Y-102314580D02*
X179433333Y-102362200D01*
X179433333Y-102362200D02*
X179528571Y-102409819D01*
X179528571Y-102409819D02*
X179719047Y-102409819D01*
X179719047Y-102409819D02*
X179814285Y-102362200D01*
X179814285Y-102362200D02*
X179861904Y-102314580D01*
X179861904Y-102314580D02*
X179909523Y-102219342D01*
X179909523Y-102219342D02*
X179909523Y-101409819D01*
X180909523Y-102409819D02*
X180338095Y-102409819D01*
X180623809Y-102409819D02*
X180623809Y-101409819D01*
X180623809Y-101409819D02*
X180528571Y-101552676D01*
X180528571Y-101552676D02*
X180433333Y-101647914D01*
X180433333Y-101647914D02*
X180338095Y-101695533D01*
X202066666Y-98949819D02*
X202066666Y-99664104D01*
X202066666Y-99664104D02*
X202019047Y-99806961D01*
X202019047Y-99806961D02*
X201923809Y-99902200D01*
X201923809Y-99902200D02*
X201780952Y-99949819D01*
X201780952Y-99949819D02*
X201685714Y-99949819D01*
X203066666Y-99949819D02*
X202495238Y-99949819D01*
X202780952Y-99949819D02*
X202780952Y-98949819D01*
X202780952Y-98949819D02*
X202685714Y-99092676D01*
X202685714Y-99092676D02*
X202590476Y-99187914D01*
X202590476Y-99187914D02*
X202495238Y-99235533D01*
D12*
%TO.C,R1*%
X170007500Y-106922742D02*
X170007500Y-107397258D01*
X168962500Y-106922742D02*
X168962500Y-107397258D01*
%TO.C,C1*%
X175404420Y-103300000D02*
X175685580Y-103300000D01*
X175404420Y-104320000D02*
X175685580Y-104320000D01*
%TO.C,C4*%
X196760000Y-100635580D02*
X196760000Y-100354420D01*
X197780000Y-100635580D02*
X197780000Y-100354420D01*
%TO.C,C5*%
X184504420Y-103200000D02*
X184785580Y-103200000D01*
X184504420Y-104220000D02*
X184785580Y-104220000D01*
%TO.C,C2*%
X166525000Y-100759420D02*
X166525000Y-101040580D01*
X167545000Y-100759420D02*
X167545000Y-101040580D01*
%TO.C,R3*%
X189737500Y-101077258D02*
X189737500Y-100602742D01*
X190782500Y-101077258D02*
X190782500Y-100602742D01*
%TO.C,J2*%
X160980000Y-100450000D02*
X162360000Y-100450000D01*
X160980000Y-101830000D02*
X160980000Y-100450000D01*
X160980000Y-103100000D02*
X160980000Y-110830000D01*
X160980000Y-103100000D02*
X163740000Y-103100000D01*
X160980000Y-110830000D02*
X163740000Y-110830000D01*
X163740000Y-103100000D02*
X163740000Y-110830000D01*
%TO.C,R4*%
X189647500Y-104137258D02*
X189647500Y-103662742D01*
X190692500Y-104137258D02*
X190692500Y-103662742D01*
%TO.C,R2*%
X168667500Y-103842742D02*
X168667500Y-104317258D01*
X169712500Y-103842742D02*
X169712500Y-104317258D01*
%TO.C,R5*%
X189597500Y-107297258D02*
X189597500Y-106822742D01*
X190642500Y-107297258D02*
X190642500Y-106822742D01*
D11*
%TO.C,U1*%
X178475000Y-102880000D02*
X178475000Y-103055000D01*
X178475000Y-102880000D02*
X181725000Y-102880000D01*
X178475000Y-105955000D02*
X178475000Y-106130000D01*
X178475000Y-106130000D02*
X181725000Y-106130000D01*
X181725000Y-102880000D02*
X181725000Y-103055000D01*
X181725000Y-105955000D02*
X181725000Y-106130000D01*
D12*
X178000000Y-103055000D02*
X177760000Y-102725000D01*
X178240000Y-102725000D01*
X178000000Y-103055000D01*
G36*
X178000000Y-103055000D02*
G01*
X177760000Y-102725000D01*
X178240000Y-102725000D01*
X178000000Y-103055000D01*
G37*
%TO.C,J1*%
X200040000Y-100495000D02*
X201420000Y-100495000D01*
X200040000Y-101875000D02*
X200040000Y-100495000D01*
X200040000Y-103145000D02*
X200040000Y-110875000D01*
X200040000Y-103145000D02*
X202800000Y-103145000D01*
X200040000Y-110875000D02*
X202800000Y-110875000D01*
X202800000Y-103145000D02*
X202800000Y-110875000D01*
%TD*%
M02*
