%TF.GenerationSoftware,KiCad,Pcbnew,9.0.7*%
%TF.CreationDate,2026-02-08T14:26:31+09:00*%
%TF.ProjectId,level_shifter,6c657665-6c5f-4736-9869-667465722e6b,rev?*%
%TF.SameCoordinates,Original*%
%TF.FileFunction,Copper,L1,Top*%
%TF.FilePolarity,Positive*%
%FSLAX46Y46*%
G04 Gerber Fmt 4.6, Leading zero omitted, Abs format (unit mm)*
G04 Created by KiCad (PCBNEW 9.0.7) date 2026-02-08 14:26:31*
%MOMM*%
%LPD*%
G01*
G04 APERTURE LIST*
G04 Aperture macros list*
%AMRoundRect*
0 Rectangle with rounded corners*
0 $1 Rounding radius*
0 $2 $3 $4 $5 $6 $7 $8 $9 X,Y pos of 4 corners*
0 Add a 4 corners polygon primitive as box body*
4,1,4,$2,$3,$4,$5,$6,$7,$8,$9,$2,$3,0*
0 Add four circle primitives for the rounded corners*
1,1,$1+$1,$2,$3*
1,1,$1+$1,$4,$5*
1,1,$1+$1,$6,$7*
1,1,$1+$1,$8,$9*
0 Add four rect primitives between the rounded corners*
20,1,$1+$1,$2,$3,$4,$5,0*
20,1,$1+$1,$4,$5,$6,$7,0*
20,1,$1+$1,$6,$7,$8,$9,0*
20,1,$1+$1,$8,$9,$2,$3,0*%
G04 Aperture macros list end*
%TA.AperFunction,SMDPad,CuDef*%
%ADD10RoundRect,0.200000X-0.275000X0.200000X-0.275000X-0.200000X0.275000X-0.200000X0.275000X0.200000X0*%
%TD*%
%TA.AperFunction,SMDPad,CuDef*%
%ADD11RoundRect,0.225000X-0.225000X-0.250000X0.225000X-0.250000X0.225000X0.250000X-0.225000X0.250000X0*%
%TD*%
%TA.AperFunction,SMDPad,CuDef*%
%ADD12RoundRect,0.225000X0.250000X-0.225000X0.250000X0.225000X-0.250000X0.225000X-0.250000X-0.225000X0*%
%TD*%
%TA.AperFunction,SMDPad,CuDef*%
%ADD13RoundRect,0.225000X-0.250000X0.225000X-0.250000X-0.225000X0.250000X-0.225000X0.250000X0.225000X0*%
%TD*%
%TA.AperFunction,SMDPad,CuDef*%
%ADD14RoundRect,0.200000X0.275000X-0.200000X0.275000X0.200000X-0.275000X0.200000X-0.275000X-0.200000X0*%
%TD*%
%TA.AperFunction,ComponentPad*%
%ADD15R,1.700000X1.700000*%
%TD*%
%TA.AperFunction,ComponentPad*%
%ADD16C,1.700000*%
%TD*%
%TA.AperFunction,SMDPad,CuDef*%
%ADD17R,1.100000X0.400000*%
%TD*%
%TA.AperFunction,ViaPad*%
%ADD18C,0.600000*%
%TD*%
%TA.AperFunction,Conductor*%
%ADD19C,0.100000*%
%TD*%
%TA.AperFunction,Conductor*%
%ADD20C,0.200000*%
%TD*%
G04 APERTURE END LIST*
D10*
%TO.P,R1,2*%
%TO.N,Net-(J2-Pin_3)*%
X169485000Y-107985000D03*
%TO.P,R1,1*%
%TO.N,Net-(U1-SDA1)*%
X169485000Y-106335000D03*
%TD*%
D11*
%TO.P,C1,1*%
%TO.N,GND*%
X174770000Y-103810000D03*
%TO.P,C1,2*%
%TO.N,+3.3V*%
X176320000Y-103810000D03*
%TD*%
D12*
%TO.P,C4,1*%
%TO.N,+5V*%
X197270000Y-101270000D03*
%TO.P,C4,2*%
%TO.N,GND*%
X197270000Y-99720000D03*
%TD*%
D11*
%TO.P,C5,1*%
%TO.N,+5V*%
X183870000Y-103710000D03*
%TO.P,C5,2*%
%TO.N,GND*%
X185420000Y-103710000D03*
%TD*%
D13*
%TO.P,C2,1*%
%TO.N,GND*%
X167035000Y-100125000D03*
%TO.P,C2,2*%
%TO.N,+3.3V*%
X167035000Y-101675000D03*
%TD*%
D14*
%TO.P,R3,1*%
%TO.N,+5V*%
X190260000Y-101665000D03*
%TO.P,R3,2*%
%TO.N,Net-(U1-EN)*%
X190260000Y-100015000D03*
%TD*%
D15*
%TO.P,J2,1,Pin_1*%
%TO.N,+3.3V*%
X162360000Y-101830000D03*
D16*
%TO.P,J2,2,Pin_2*%
%TO.N,Net-(J2-Pin_2)*%
X162360000Y-104370000D03*
%TO.P,J2,3,Pin_3*%
%TO.N,Net-(J2-Pin_3)*%
X162360000Y-106910000D03*
%TO.P,J2,4,Pin_4*%
%TO.N,GND*%
X162360000Y-109450000D03*
%TD*%
D14*
%TO.P,R4,1*%
%TO.N,Net-(J1-Pin_2)*%
X190170000Y-104725000D03*
%TO.P,R4,2*%
%TO.N,Net-(U1-SCL2)*%
X190170000Y-103075000D03*
%TD*%
D10*
%TO.P,R2,1*%
%TO.N,Net-(U1-SCL1)*%
X169190000Y-103255000D03*
%TO.P,R2,2*%
%TO.N,Net-(J2-Pin_2)*%
X169190000Y-104905000D03*
%TD*%
D14*
%TO.P,R5,1*%
%TO.N,Net-(J1-Pin_3)*%
X190120000Y-107885000D03*
%TO.P,R5,2*%
%TO.N,Net-(U1-SDA2)*%
X190120000Y-106235000D03*
%TD*%
D17*
%TO.P,U1,1,GND*%
%TO.N,GND*%
X177950000Y-103530000D03*
%TO.P,U1,2,VREF1*%
%TO.N,+3.3V*%
X177950000Y-104180000D03*
%TO.P,U1,3,SCL1*%
%TO.N,Net-(U1-SCL1)*%
X177950000Y-104830000D03*
%TO.P,U1,4,SDA1*%
%TO.N,Net-(U1-SDA1)*%
X177950000Y-105480000D03*
%TO.P,U1,5,SDA2*%
%TO.N,Net-(U1-SDA2)*%
X182250000Y-105480000D03*
%TO.P,U1,6,SCL2*%
%TO.N,Net-(U1-SCL2)*%
X182250000Y-104830000D03*
%TO.P,U1,7,VREF2*%
%TO.N,+5V*%
X182250000Y-104180000D03*
%TO.P,U1,8,EN*%
%TO.N,Net-(U1-EN)*%
X182250000Y-103530000D03*
%TD*%
D15*
%TO.P,J1,1,Pin_1*%
%TO.N,+5V*%
X201420000Y-101875000D03*
D16*
%TO.P,J1,2,Pin_2*%
%TO.N,Net-(J1-Pin_2)*%
X201420000Y-104415000D03*
%TO.P,J1,3,Pin_3*%
%TO.N,Net-(J1-Pin_3)*%
X201420000Y-106955000D03*
%TO.P,J1,4,Pin_4*%
%TO.N,GND*%
X201420000Y-109495000D03*
%TD*%
D18*
%TO.N,GND*%
X186460000Y-103860000D03*
X186490000Y-103170000D03*
X198300000Y-99690000D03*
X196120000Y-99650000D03*
X199770000Y-108880000D03*
X199840000Y-110790000D03*
X202840000Y-111020000D03*
X202760000Y-108800000D03*
X168080000Y-99830000D03*
X165930000Y-99840000D03*
X173720000Y-103650000D03*
X178380000Y-102580000D03*
X177430000Y-102600000D03*
X161000000Y-108790000D03*
X161010000Y-110880000D03*
X163790000Y-110910000D03*
X163780000Y-108860000D03*
%TD*%
D19*
%TO.N,Net-(U1-SCL1)*%
X170765000Y-104830000D02*
X169190000Y-103255000D01*
X177950000Y-104830000D02*
X170765000Y-104830000D01*
D20*
X177680000Y-104830000D02*
X177670000Y-104820000D01*
X177950000Y-104830000D02*
X177680000Y-104830000D01*
D19*
%TO.N,Net-(J2-Pin_2)*%
X168655000Y-104370000D02*
X169190000Y-104905000D01*
X162360000Y-104370000D02*
X168655000Y-104370000D01*
%TO.N,Net-(U1-EN)*%
X185765000Y-100015000D02*
X190260000Y-100015000D01*
X182250000Y-103530000D02*
X185765000Y-100015000D01*
D20*
%TO.N,Net-(J2-Pin_2)*%
X162895000Y-104905000D02*
X162360000Y-104370000D01*
D19*
%TO.N,Net-(J2-Pin_3)*%
X169485000Y-107985000D02*
X163435000Y-107985000D01*
X163435000Y-107985000D02*
X162360000Y-106910000D01*
%TO.N,Net-(U1-SDA1)*%
X170340000Y-105480000D02*
X169485000Y-106335000D01*
X177950000Y-105480000D02*
X170340000Y-105480000D01*
%TO.N,Net-(J1-Pin_3)*%
X200490000Y-107885000D02*
X201420000Y-106955000D01*
X190120000Y-107885000D02*
X200490000Y-107885000D01*
D20*
%TO.N,Net-(J1-Pin_2)*%
X201110000Y-104725000D02*
X201420000Y-104415000D01*
D19*
X190170000Y-104725000D02*
X201110000Y-104725000D01*
%TO.N,Net-(U1-SCL2)*%
X188415000Y-104830000D02*
X190170000Y-103075000D01*
X182250000Y-104830000D02*
X188415000Y-104830000D01*
%TO.N,Net-(U1-SDA2)*%
X183435000Y-106235000D02*
X190120000Y-106235000D01*
D20*
X182250000Y-105480000D02*
X182680000Y-105480000D01*
D19*
X182680000Y-105480000D02*
X183435000Y-106235000D01*
%TD*%
%TA.AperFunction,Conductor*%
%TO.N,GND*%
G36*
X189617071Y-99010185D02*
G01*
X189662826Y-99062989D01*
X189672770Y-99132147D01*
X189643745Y-99195703D01*
X189614183Y-99220615D01*
X189582846Y-99239559D01*
X189549811Y-99259530D01*
X189429531Y-99379810D01*
X189429528Y-99379814D01*
X189414514Y-99404651D01*
X189362986Y-99451838D01*
X189308398Y-99464500D01*
X185692525Y-99464500D01*
X185608519Y-99487009D01*
X185552513Y-99502016D01*
X185552512Y-99502017D01*
X185426989Y-99574487D01*
X185426984Y-99574491D01*
X181908294Y-103093181D01*
X181846971Y-103126666D01*
X181820613Y-103129500D01*
X181680247Y-103129500D01*
X181621770Y-103141131D01*
X181621769Y-103141132D01*
X181555447Y-103185447D01*
X181511132Y-103251769D01*
X181511131Y-103251770D01*
X181499500Y-103310247D01*
X181499500Y-103391921D01*
X181479815Y-103458960D01*
X181427011Y-103504715D01*
X181422965Y-103506477D01*
X181420903Y-103507331D01*
X181420899Y-103507332D01*
X181326058Y-103559119D01*
X181326055Y-103559122D01*
X181220752Y-103657161D01*
X181220748Y-103657165D01*
X181147336Y-103780893D01*
X181147333Y-103780900D01*
X181132981Y-103815547D01*
X181114975Y-103866587D01*
X181094500Y-104009001D01*
X181094500Y-104361002D01*
X181097396Y-104415040D01*
X181097397Y-104415041D01*
X181132979Y-104554449D01*
X181132981Y-104554454D01*
X181147332Y-104589099D01*
X181147332Y-104589100D01*
X181199119Y-104683941D01*
X181199122Y-104683944D01*
X181297161Y-104789247D01*
X181297165Y-104789251D01*
X181420893Y-104862663D01*
X181420895Y-104862664D01*
X181420902Y-104862668D01*
X181422945Y-104863514D01*
X181423523Y-104863979D01*
X181424862Y-104864650D01*
X181424716Y-104864941D01*
X181432962Y-104871585D01*
X181445212Y-104875529D01*
X181459651Y-104893089D01*
X181477351Y-104907351D01*
X181482449Y-104920816D01*
X181489588Y-104929498D01*
X181494087Y-104951551D01*
X181498653Y-104963608D01*
X181499500Y-104970816D01*
X181499500Y-105049748D01*
X181511133Y-105108231D01*
X181516608Y-105116426D01*
X181519441Y-105140530D01*
X181516347Y-105158697D01*
X181518317Y-105177023D01*
X181511303Y-105200910D01*
X181499500Y-105260247D01*
X181499500Y-105699752D01*
X181511131Y-105758229D01*
X181511132Y-105758230D01*
X181555447Y-105824552D01*
X181621769Y-105868867D01*
X181621770Y-105868868D01*
X181680247Y-105880499D01*
X181680250Y-105880500D01*
X181680252Y-105880500D01*
X181749902Y-105880500D01*
X181816941Y-105900185D01*
X181837583Y-105916819D01*
X181881284Y-105960520D01*
X181881286Y-105960521D01*
X181881290Y-105960524D01*
X181963183Y-106007804D01*
X182018216Y-106039577D01*
X182170943Y-106080500D01*
X182450613Y-106080500D01*
X182517652Y-106100185D01*
X182538294Y-106116819D01*
X183096985Y-106675510D01*
X183096987Y-106675511D01*
X183096991Y-106675514D01*
X183182015Y-106724602D01*
X183182018Y-106724603D01*
X183182023Y-106724606D01*
X183222515Y-106747984D01*
X183362525Y-106785500D01*
X189168398Y-106785500D01*
X189235437Y-106805185D01*
X189260526Y-106826504D01*
X189268417Y-106835263D01*
X189289528Y-106870185D01*
X189393935Y-106974592D01*
X189396108Y-106977004D01*
X189409889Y-107005701D01*
X189425146Y-107033642D01*
X189424907Y-107036975D01*
X189426354Y-107039987D01*
X189422433Y-107071578D01*
X189420162Y-107103334D01*
X189418091Y-107106555D01*
X189417748Y-107109325D01*
X189411468Y-107116860D01*
X189391661Y-107147681D01*
X189289531Y-107249810D01*
X189289530Y-107249811D01*
X189201522Y-107395393D01*
X189150913Y-107557807D01*
X189144500Y-107628386D01*
X189144500Y-108141613D01*
X189150913Y-108212192D01*
X189150913Y-108212194D01*
X189150914Y-108212196D01*
X189201522Y-108374606D01*
X189276106Y-108497983D01*
X189289530Y-108520188D01*
X189409811Y-108640469D01*
X189409813Y-108640470D01*
X189409815Y-108640472D01*
X189555394Y-108728478D01*
X189717804Y-108779086D01*
X189788384Y-108785500D01*
X189788387Y-108785500D01*
X190451613Y-108785500D01*
X190451616Y-108785500D01*
X190522196Y-108779086D01*
X190684606Y-108728478D01*
X190830185Y-108640472D01*
X190950472Y-108520185D01*
X190965486Y-108495349D01*
X191017014Y-108448162D01*
X191071602Y-108435500D01*
X200562472Y-108435500D01*
X200562474Y-108435500D01*
X200562475Y-108435500D01*
X200702485Y-108397984D01*
X200742977Y-108374606D01*
X200828015Y-108325510D01*
X200888463Y-108265060D01*
X200895665Y-108259691D01*
X200920331Y-108250543D01*
X200943429Y-108237931D01*
X200953045Y-108238411D01*
X200961175Y-108235397D01*
X200981362Y-108239828D01*
X201008103Y-108241165D01*
X201103757Y-108272246D01*
X201313713Y-108305500D01*
X201313714Y-108305500D01*
X201526286Y-108305500D01*
X201526287Y-108305500D01*
X201736243Y-108272246D01*
X201938412Y-108206557D01*
X202127816Y-108110051D01*
X202189758Y-108065048D01*
X202299786Y-107985109D01*
X202299788Y-107985106D01*
X202299792Y-107985104D01*
X202450104Y-107834792D01*
X202450106Y-107834788D01*
X202450109Y-107834786D01*
X202575048Y-107662820D01*
X202575047Y-107662820D01*
X202575051Y-107662816D01*
X202671557Y-107473412D01*
X202737246Y-107271243D01*
X202770500Y-107061287D01*
X202770500Y-106848713D01*
X202737246Y-106638757D01*
X202671557Y-106436588D01*
X202575051Y-106247184D01*
X202575049Y-106247181D01*
X202575048Y-106247179D01*
X202450109Y-106075213D01*
X202299786Y-105924890D01*
X202127820Y-105799951D01*
X202127115Y-105799591D01*
X202119054Y-105795485D01*
X202068259Y-105747512D01*
X202051463Y-105679692D01*
X202073999Y-105613556D01*
X202119054Y-105574515D01*
X202127816Y-105570051D01*
X202170878Y-105538765D01*
X202299786Y-105445109D01*
X202299788Y-105445106D01*
X202299792Y-105445104D01*
X202450104Y-105294792D01*
X202450106Y-105294788D01*
X202450109Y-105294786D01*
X202575048Y-105122820D01*
X202575047Y-105122820D01*
X202575051Y-105122816D01*
X202671557Y-104933412D01*
X202737246Y-104731243D01*
X202770500Y-104521287D01*
X202770500Y-104308713D01*
X202737246Y-104098757D01*
X202671557Y-103896588D01*
X202575051Y-103707184D01*
X202561768Y-103688902D01*
X202538289Y-103623096D01*
X202554114Y-103555042D01*
X202604220Y-103506347D01*
X202631417Y-103495870D01*
X202744450Y-103467020D01*
X202779098Y-103452668D01*
X202792268Y-103445477D01*
X202841042Y-103418844D01*
X202873943Y-103400879D01*
X202979249Y-103302837D01*
X202995847Y-103274864D01*
X203027150Y-103222106D01*
X203052668Y-103179098D01*
X203060939Y-103159129D01*
X203104780Y-103104727D01*
X203171074Y-103082662D01*
X203238774Y-103099941D01*
X203286384Y-103151079D01*
X203299500Y-103206583D01*
X203299500Y-111575500D01*
X203279815Y-111642539D01*
X203227011Y-111688294D01*
X203175500Y-111699500D01*
X160804500Y-111699500D01*
X160737461Y-111679815D01*
X160691706Y-111627011D01*
X160680500Y-111575500D01*
X160680500Y-103400020D01*
X160700185Y-103332981D01*
X160752989Y-103287226D01*
X160822147Y-103277282D01*
X160885703Y-103306307D01*
X160888288Y-103308612D01*
X160927783Y-103344815D01*
X160927785Y-103344816D01*
X160927788Y-103344819D01*
X160958169Y-103365565D01*
X161046604Y-103425955D01*
X161046606Y-103425956D01*
X161151209Y-103459871D01*
X161208909Y-103499272D01*
X161236148Y-103563614D01*
X161224277Y-103632468D01*
X161213286Y-103650707D01*
X161204951Y-103662179D01*
X161108444Y-103851585D01*
X161108443Y-103851587D01*
X161108443Y-103851588D01*
X161103570Y-103866587D01*
X161042753Y-104053760D01*
X161009500Y-104263713D01*
X161009500Y-104476286D01*
X161042389Y-104683943D01*
X161042754Y-104686243D01*
X161104741Y-104877020D01*
X161108444Y-104888414D01*
X161204951Y-105077820D01*
X161329890Y-105249786D01*
X161480213Y-105400109D01*
X161652182Y-105525050D01*
X161660946Y-105529516D01*
X161711742Y-105577491D01*
X161728536Y-105645312D01*
X161705998Y-105711447D01*
X161660946Y-105750484D01*
X161652182Y-105754949D01*
X161480213Y-105879890D01*
X161329890Y-106030213D01*
X161204951Y-106202179D01*
X161108444Y-106391585D01*
X161042753Y-106593760D01*
X161009500Y-106803713D01*
X161009500Y-107016286D01*
X161039125Y-107203334D01*
X161042754Y-107226243D01*
X161107333Y-107424997D01*
X161108444Y-107428414D01*
X161204951Y-107617820D01*
X161329890Y-107789786D01*
X161480213Y-107940109D01*
X161652179Y-108065048D01*
X161652181Y-108065049D01*
X161652184Y-108065051D01*
X161841588Y-108161557D01*
X162043757Y-108227246D01*
X162253713Y-108260500D01*
X162253714Y-108260500D01*
X162466286Y-108260500D01*
X162466287Y-108260500D01*
X162676243Y-108227246D01*
X162771895Y-108196165D01*
X162841733Y-108194170D01*
X162897892Y-108226416D01*
X163096986Y-108425510D01*
X163096987Y-108425511D01*
X163096989Y-108425512D01*
X163182023Y-108474606D01*
X163222515Y-108497984D01*
X163362525Y-108535500D01*
X163362526Y-108535500D01*
X163507474Y-108535500D01*
X168533398Y-108535500D01*
X168600437Y-108555185D01*
X168639514Y-108595349D01*
X168654528Y-108620185D01*
X168654531Y-108620189D01*
X168774811Y-108740469D01*
X168774813Y-108740470D01*
X168774815Y-108740472D01*
X168920394Y-108828478D01*
X169082804Y-108879086D01*
X169153384Y-108885500D01*
X169153387Y-108885500D01*
X169816613Y-108885500D01*
X169816616Y-108885500D01*
X169887196Y-108879086D01*
X170049606Y-108828478D01*
X170195185Y-108740472D01*
X170315472Y-108620185D01*
X170403478Y-108474606D01*
X170454086Y-108312196D01*
X170460500Y-108241616D01*
X170460500Y-107728384D01*
X170454086Y-107657804D01*
X170403478Y-107495394D01*
X170315472Y-107349815D01*
X170315470Y-107349813D01*
X170315469Y-107349811D01*
X170213339Y-107247681D01*
X170179854Y-107186358D01*
X170184838Y-107116666D01*
X170213339Y-107072319D01*
X170315468Y-106970189D01*
X170315469Y-106970188D01*
X170315472Y-106970185D01*
X170403478Y-106824606D01*
X170454086Y-106662196D01*
X170460500Y-106591616D01*
X170460500Y-106189386D01*
X170469144Y-106159945D01*
X170475668Y-106129959D01*
X170479422Y-106124943D01*
X170480185Y-106122347D01*
X170496819Y-106101705D01*
X170531705Y-106066819D01*
X170593028Y-106033334D01*
X170619386Y-106030500D01*
X178022472Y-106030500D01*
X178022475Y-106030500D01*
X178162485Y-105992984D01*
X178288015Y-105920509D01*
X178291705Y-105916819D01*
X178353028Y-105883334D01*
X178379386Y-105880500D01*
X178519750Y-105880500D01*
X178519751Y-105880499D01*
X178534568Y-105877552D01*
X178578229Y-105868868D01*
X178578229Y-105868867D01*
X178578231Y-105868867D01*
X178644552Y-105824552D01*
X178688867Y-105758231D01*
X178688867Y-105758229D01*
X178688868Y-105758229D01*
X178700499Y-105699752D01*
X178700500Y-105699750D01*
X178700500Y-105260249D01*
X178700499Y-105260247D01*
X178686485Y-105189790D01*
X178687762Y-105189535D01*
X178681680Y-105132991D01*
X178688694Y-105109100D01*
X178700499Y-105049752D01*
X178700500Y-105049750D01*
X178700500Y-104898501D01*
X178720185Y-104831462D01*
X178754795Y-104795947D01*
X178812012Y-104757059D01*
X178863620Y-104709959D01*
X178863622Y-104709957D01*
X178955011Y-104598828D01*
X179011389Y-104466453D01*
X179029340Y-104398928D01*
X179046140Y-104256032D01*
X179040528Y-104038281D01*
X179027717Y-103937492D01*
X179016552Y-103889176D01*
X178983850Y-103792996D01*
X178976072Y-103780893D01*
X178906070Y-103671968D01*
X178906057Y-103671951D01*
X178860313Y-103619159D01*
X178860309Y-103619156D01*
X178860307Y-103619153D01*
X178751573Y-103524933D01*
X178751570Y-103524931D01*
X178751568Y-103524930D01*
X178620702Y-103465164D01*
X178620697Y-103465162D01*
X178620696Y-103465162D01*
X178553657Y-103445477D01*
X178553659Y-103445477D01*
X178553654Y-103445476D01*
X178506181Y-103438650D01*
X178411237Y-103425000D01*
X178411235Y-103425000D01*
X177561403Y-103425000D01*
X177540439Y-103418844D01*
X177518638Y-103417392D01*
X177500281Y-103407052D01*
X177494364Y-103405315D01*
X177487579Y-103400629D01*
X177485780Y-103399296D01*
X177479690Y-103394433D01*
X177478457Y-103393870D01*
X177472595Y-103389526D01*
X177454625Y-103365764D01*
X177434673Y-103343644D01*
X177432087Y-103335963D01*
X177430450Y-103333798D01*
X177430182Y-103330304D01*
X177424916Y-103314656D01*
X177421442Y-103297608D01*
X177411743Y-103250008D01*
X177360797Y-103064504D01*
X177336780Y-102996485D01*
X177328722Y-102977989D01*
X177322694Y-102964151D01*
X177322684Y-102964128D01*
X177289239Y-102900237D01*
X177289238Y-102900235D01*
X177259711Y-102864925D01*
X177256579Y-102861022D01*
X177206367Y-102795797D01*
X177201522Y-102789046D01*
X177175359Y-102749890D01*
X177163899Y-102728451D01*
X177151007Y-102697326D01*
X177143952Y-102674066D01*
X177134382Y-102625955D01*
X177134380Y-102625949D01*
X177134378Y-102625936D01*
X177125239Y-102587790D01*
X177120035Y-102569273D01*
X177107957Y-102531930D01*
X177107955Y-102531928D01*
X177107954Y-102531923D01*
X177039687Y-102405292D01*
X177039686Y-102405291D01*
X177039681Y-102405281D01*
X177018895Y-102377202D01*
X176998113Y-102349126D01*
X176998111Y-102349124D01*
X176998110Y-102349123D01*
X176896920Y-102246841D01*
X176875935Y-102235235D01*
X176771022Y-102177214D01*
X176771015Y-102177211D01*
X176771012Y-102177209D01*
X176705680Y-102152441D01*
X176705414Y-102152340D01*
X176703364Y-102151924D01*
X176618766Y-102133044D01*
X176593338Y-102124388D01*
X176240866Y-101959902D01*
X176169513Y-101932955D01*
X176133713Y-101922444D01*
X176133687Y-101922438D01*
X176059107Y-101906537D01*
X176059089Y-101906534D01*
X174761021Y-101730856D01*
X174755828Y-101730041D01*
X167894658Y-100503408D01*
X167871265Y-100499789D01*
X167859755Y-100498284D01*
X167836192Y-100495763D01*
X167782482Y-100491287D01*
X167718022Y-100485915D01*
X167707009Y-100485177D01*
X167701627Y-100484817D01*
X167693627Y-100484411D01*
X167686058Y-100484148D01*
X167686051Y-100484149D01*
X167677501Y-100483852D01*
X167633954Y-100489284D01*
X167633746Y-100485797D01*
X167610662Y-100487177D01*
X167539196Y-100496598D01*
X167488325Y-100514892D01*
X167488190Y-100514398D01*
X167483117Y-100515786D01*
X167483106Y-100515788D01*
X167467227Y-100520134D01*
X167467219Y-100520137D01*
X167460255Y-100523163D01*
X167449851Y-100527138D01*
X167395582Y-100545121D01*
X167339497Y-100563705D01*
X167300495Y-100569999D01*
X166769505Y-100569999D01*
X166766711Y-100569548D01*
X166765240Y-100569926D01*
X166730499Y-100563704D01*
X166705142Y-100555301D01*
X166679051Y-100543134D01*
X166617841Y-100505379D01*
X166611947Y-100501508D01*
X166601765Y-100494398D01*
X166601764Y-100494397D01*
X166542502Y-100465995D01*
X166472012Y-100432212D01*
X166438665Y-100421745D01*
X166405848Y-100411445D01*
X166405362Y-100411290D01*
X166263334Y-100388178D01*
X161335654Y-100296925D01*
X161335653Y-100296925D01*
X161335652Y-100296925D01*
X161307590Y-100299548D01*
X161223398Y-100307419D01*
X161223394Y-100307420D01*
X161169600Y-100318604D01*
X161118664Y-100335296D01*
X161062496Y-100353704D01*
X161062494Y-100353704D01*
X161062491Y-100353706D01*
X161062490Y-100353706D01*
X160941462Y-100431487D01*
X160941459Y-100431490D01*
X160885702Y-100479803D01*
X160822145Y-100508827D01*
X160752987Y-100498883D01*
X160700184Y-100453127D01*
X160680500Y-100386089D01*
X160680500Y-99114500D01*
X160700185Y-99047461D01*
X160752989Y-99001706D01*
X160804500Y-98990500D01*
X189550032Y-98990500D01*
X189617071Y-99010185D01*
G37*
%TD.AperFunction*%
%TA.AperFunction,Conductor*%
G36*
X170916283Y-102906217D02*
G01*
X174906524Y-103337079D01*
X174960792Y-103340000D01*
X175013102Y-103340000D01*
X175014953Y-103340055D01*
X175015434Y-103340211D01*
X175023857Y-103340640D01*
X175039371Y-103342225D01*
X175053049Y-103344402D01*
X175095118Y-103353535D01*
X175156454Y-103386993D01*
X175189162Y-103444856D01*
X175190806Y-103451483D01*
X175206641Y-103499272D01*
X175208705Y-103505499D01*
X175214999Y-103544502D01*
X175214999Y-104082593D01*
X175214088Y-104091520D01*
X175215972Y-104152815D01*
X175215987Y-104153938D01*
X175206855Y-104186553D01*
X175198324Y-104219301D01*
X175197464Y-104220093D01*
X175197149Y-104221220D01*
X175171849Y-104243705D01*
X175146952Y-104266657D01*
X175145696Y-104266950D01*
X175144925Y-104267636D01*
X175138365Y-104268663D01*
X175091997Y-104279500D01*
X171044387Y-104279500D01*
X170977348Y-104259815D01*
X170956706Y-104243181D01*
X170201819Y-103488294D01*
X170168334Y-103426971D01*
X170165500Y-103400613D01*
X170165500Y-103029500D01*
X170185185Y-102962461D01*
X170237989Y-102916706D01*
X170289500Y-102905500D01*
X170902971Y-102905500D01*
X170916283Y-102906217D01*
G37*
%TD.AperFunction*%
%TA.AperFunction,Conductor*%
G36*
X189120217Y-102808627D02*
G01*
X189173739Y-102853539D01*
X189194484Y-102920258D01*
X189194500Y-102922224D01*
X189194500Y-103220613D01*
X189174815Y-103287652D01*
X189158181Y-103308294D01*
X188223294Y-104243181D01*
X188161971Y-104276666D01*
X188135613Y-104279500D01*
X185274500Y-104279500D01*
X185207461Y-104259815D01*
X185161706Y-104207011D01*
X185150500Y-104155500D01*
X185150500Y-103529585D01*
X185170185Y-103462546D01*
X185222989Y-103416791D01*
X185254904Y-103407143D01*
X186105571Y-103271037D01*
X186119401Y-103268627D01*
X186255554Y-103222109D01*
X186282460Y-103208373D01*
X186294867Y-103201820D01*
X186410050Y-103115598D01*
X186410062Y-103115585D01*
X186413391Y-103112702D01*
X186414542Y-103114031D01*
X186469395Y-103084051D01*
X186539088Y-103089006D01*
X186545284Y-103091506D01*
X186546589Y-103092074D01*
X186546591Y-103092075D01*
X186682926Y-103138054D01*
X186715166Y-103144003D01*
X186742896Y-103148327D01*
X186886758Y-103146046D01*
X189050912Y-102799781D01*
X189120217Y-102808627D01*
G37*
%TD.AperFunction*%
%TA.AperFunction,Conductor*%
G36*
X203242539Y-99010185D02*
G01*
X203288294Y-99062989D01*
X203299500Y-99114500D01*
X203299500Y-100589689D01*
X203279815Y-100656728D01*
X203227011Y-100702483D01*
X203157853Y-100712427D01*
X203094297Y-100683402D01*
X203059867Y-100634466D01*
X203058627Y-100631263D01*
X203058626Y-100631261D01*
X203058623Y-100631253D01*
X203015427Y-100545123D01*
X203015426Y-100545121D01*
X202922395Y-100435365D01*
X202834505Y-100377521D01*
X202802209Y-100356266D01*
X202802199Y-100356261D01*
X202802195Y-100356259D01*
X202768276Y-100340320D01*
X202758984Y-100336547D01*
X202718125Y-100319955D01*
X202597973Y-100296925D01*
X202576823Y-100292871D01*
X202576821Y-100292870D01*
X202576817Y-100292870D01*
X199678957Y-100157800D01*
X197906143Y-100075169D01*
X197879051Y-100074634D01*
X197873790Y-100074672D01*
X197846608Y-100075596D01*
X191360645Y-100471541D01*
X191292530Y-100455978D01*
X191243643Y-100406060D01*
X191229504Y-100337636D01*
X191229572Y-100336844D01*
X191235500Y-100271616D01*
X191235500Y-99758384D01*
X191229086Y-99687804D01*
X191178478Y-99525394D01*
X191090472Y-99379815D01*
X191090470Y-99379813D01*
X191090469Y-99379811D01*
X190970188Y-99259530D01*
X190970185Y-99259528D01*
X190905817Y-99220616D01*
X190858630Y-99169089D01*
X190846792Y-99100229D01*
X190874061Y-99035901D01*
X190931780Y-98996527D01*
X190969968Y-98990500D01*
X203175500Y-98990500D01*
X203242539Y-99010185D01*
G37*
%TD.AperFunction*%
%TD*%
%TA.AperFunction,Conductor*%
%TO.N,+5V*%
G36*
X202553281Y-100797822D02*
G01*
X202587224Y-100813772D01*
X202600000Y-100846769D01*
X202600000Y-102951000D01*
X202585648Y-102985648D01*
X202551000Y-103000000D01*
X200207983Y-103000000D01*
X200192430Y-102997466D01*
X197810003Y-102200000D01*
X197810000Y-102200000D01*
X191000000Y-102200000D01*
X189600000Y-102200000D01*
X189389200Y-102233727D01*
X186806894Y-102646895D01*
X186774654Y-102640946D01*
X186738690Y-102620184D01*
X186721784Y-102610423D01*
X186721781Y-102610422D01*
X186721779Y-102610421D01*
X186569060Y-102569500D01*
X186569057Y-102569500D01*
X186410943Y-102569500D01*
X186410940Y-102569500D01*
X186258217Y-102610422D01*
X186258213Y-102610423D01*
X186121290Y-102689475D01*
X186121285Y-102689479D01*
X186052613Y-102758150D01*
X186025707Y-102771886D01*
X184599999Y-103000000D01*
X184644573Y-103335535D01*
X184645000Y-103341988D01*
X184645000Y-104334704D01*
X184630648Y-104369352D01*
X184604352Y-104395648D01*
X184569704Y-104410000D01*
X181649000Y-104410000D01*
X181614352Y-104395648D01*
X181600000Y-104361000D01*
X181600000Y-104009000D01*
X181614352Y-103974352D01*
X181649000Y-103960000D01*
X183200000Y-103960000D01*
X183200000Y-103095976D01*
X183214351Y-103061329D01*
X183301557Y-102974123D01*
X183321585Y-102962004D01*
X189592864Y-101002230D01*
X189607479Y-101000000D01*
X190999984Y-101000000D01*
X191000000Y-101000000D01*
X197877380Y-100580159D01*
X197882619Y-100580122D01*
X202553281Y-100797822D01*
G37*
%TD.AperFunction*%
%TD*%
%TA.AperFunction,Conductor*%
%TO.N,+3.3V*%
G36*
X166253976Y-100893592D02*
G01*
X166320636Y-100914514D01*
X166328593Y-100920308D01*
X166331961Y-100922972D01*
X166476294Y-101011998D01*
X166476297Y-101011999D01*
X166476303Y-101012003D01*
X166637292Y-101065349D01*
X166736655Y-101075500D01*
X167333344Y-101075499D01*
X167333352Y-101075498D01*
X167333355Y-101075498D01*
X167387760Y-101069940D01*
X167432708Y-101065349D01*
X167593697Y-101012003D01*
X167600663Y-101007706D01*
X167621629Y-101001968D01*
X167640828Y-100991776D01*
X167663912Y-100990396D01*
X167668052Y-100989264D01*
X167676039Y-100989669D01*
X167794216Y-100999518D01*
X167805711Y-101001021D01*
X174680000Y-102230000D01*
X175991298Y-102407468D01*
X176027100Y-102417980D01*
X176460000Y-102620000D01*
X176526485Y-102625114D01*
X176591817Y-102649882D01*
X176633388Y-102706040D01*
X176638592Y-102724557D01*
X176660261Y-102833491D01*
X176660264Y-102833501D01*
X176720602Y-102979172D01*
X176720609Y-102979185D01*
X176808210Y-103110288D01*
X176808213Y-103110292D01*
X176841454Y-103143533D01*
X176849373Y-103157151D01*
X176859250Y-103166018D01*
X176873346Y-103198375D01*
X176924292Y-103383879D01*
X176928719Y-103416718D01*
X176928719Y-103600000D01*
X177128719Y-103800000D01*
X177139354Y-103800000D01*
X177206393Y-103819685D01*
X177242456Y-103855109D01*
X177255447Y-103874552D01*
X177321769Y-103918867D01*
X177321770Y-103918868D01*
X177380247Y-103930499D01*
X177380250Y-103930500D01*
X178411237Y-103930500D01*
X178478276Y-103950185D01*
X178524031Y-104002989D01*
X178535196Y-104051305D01*
X178540808Y-104269056D01*
X178522857Y-104336581D01*
X178471249Y-104383681D01*
X178402370Y-104395403D01*
X178338088Y-104368025D01*
X178329168Y-104359932D01*
X178318717Y-104349481D01*
X178318709Y-104349475D01*
X178181790Y-104270426D01*
X178181786Y-104270424D01*
X178181784Y-104270423D01*
X178029057Y-104229500D01*
X178029056Y-104229500D01*
X177802706Y-104229500D01*
X177770614Y-104225275D01*
X177749058Y-104219499D01*
X177749057Y-104219499D01*
X177590943Y-104219499D01*
X177450736Y-104257067D01*
X177438211Y-104260424D01*
X177433950Y-104262885D01*
X177371947Y-104279500D01*
X175840328Y-104279500D01*
X175773289Y-104259815D01*
X175727534Y-104207011D01*
X175716970Y-104142897D01*
X175720499Y-104108352D01*
X175720500Y-104108345D01*
X175720499Y-103511656D01*
X175710349Y-103412292D01*
X175670648Y-103292481D01*
X175664367Y-103255068D01*
X175660000Y-102910000D01*
X175660000Y-102909999D01*
X175198346Y-102860150D01*
X175185196Y-102858730D01*
X175142708Y-102844651D01*
X175043345Y-102834500D01*
X174960792Y-102834500D01*
X174954151Y-102833783D01*
X172831492Y-102604580D01*
X170936860Y-102400000D01*
X170936859Y-102400000D01*
X169736503Y-102400000D01*
X169699614Y-102394386D01*
X169679989Y-102388271D01*
X169592196Y-102360914D01*
X169521616Y-102354500D01*
X168858384Y-102354500D01*
X168787804Y-102360914D01*
X168713571Y-102384045D01*
X168680386Y-102394386D01*
X168643497Y-102400000D01*
X166399995Y-102400000D01*
X161338213Y-102984052D01*
X161269359Y-102972181D01*
X161217854Y-102924970D01*
X161200000Y-102860869D01*
X161200000Y-100926317D01*
X161219685Y-100859278D01*
X161272489Y-100813523D01*
X161326292Y-100802338D01*
X166253976Y-100893592D01*
G37*
%TD.AperFunction*%
%TD*%
M02*
