M48
; DRILL file {KiCad 9.0.7} date 2026-02-08T14:26:41+0900
; FORMAT={-:-/ absolute / metric / decimal}
; #@! TF.CreationDate,2026-02-08T14:26:41+09:00
; #@! TF.GenerationSoftware,Kicad,Pcbnew,9.0.7
; #@! TF.FileFunction,Plated,1,2,PTH
FMAT,2
METRIC
; #@! TA.AperFunction,Plated,PTH,ViaDrill
T1C0.300
; #@! TA.AperFunction,Plated,PTH,ComponentDrill
T2C1.000
%
G90
G05
T1
X161.0Y-108.79
X161.01Y-110.88
X163.78Y-108.86
X163.79Y-110.91
X165.93Y-99.84
X168.08Y-99.83
X173.72Y-103.65
X177.43Y-102.6
X178.38Y-102.58
X186.46Y-103.86
X186.49Y-103.17
X196.12Y-99.65
X198.3Y-99.69
X199.77Y-108.88
X199.84Y-110.79
X202.76Y-108.8
X202.84Y-111.02
T2
X162.36Y-101.83
X162.36Y-104.37
X162.36Y-106.91
X162.36Y-109.45
X201.42Y-101.875
X201.42Y-104.415
X201.42Y-106.955
X201.42Y-109.495
M30
